<?xml version="1.0" encoding="UTF-8"?>
<svg version="1.1" viewBox="0 0 2160 2700" xmlns="http://www.w3.org/2000/svg">
<path transform="translate(1063.1 911.88)" d="m0 0c1.3557 0.0033309 1.3557 0.0033309 2.7388 0.0067291 1.021 7.553e-5 2.042 1.5106e-4 3.0939 2.2888e-4 1.1104 0.0051613 2.2208 0.010323 3.3649 0.01564 1.6959 0.0021224 1.6959 0.0021224 3.426 0.0042877 3.6276 0.0056183 7.255 0.018174 10.883 0.030869 2.4525 0.0050126 4.9049 0.009576 7.3574 0.013672 6.0267 0.011053 12.053 0.027809 18.08 0.048828v2h45v2c0.6683-0.0052368 1.3366-0.010474 2.0251-0.015869 22.56-0.15289 22.56-0.15289 32.912 0.45337 0.69601 0.039236 1.392 0.078472 2.1091 0.1189 4.6879 0.31085 4.6879 0.31085 6.9534 1.4436 3.2261 0.26366 6.4455 0.4443 9.6777 0.60547 5.2215 0.29374 5.2215 0.29374 6.3223 1.3945 2.1829 0.23482 4.372 0.41363 6.5625 0.5625 1.1975 0.083789 2.3951 0.16758 3.6289 0.25391 0.92684 0.060586 1.8537 0.12117 2.8086 0.18359v2c0.82242-0.011602 1.6448-0.023203 2.4922-0.035156 6.9111-0.055863 13.65 0.16822 20.508 1.0352v2c0.71027-0.011602 1.4205-0.023203 2.1523-0.035156 0.9191-0.0090234 1.8382-0.018047 2.7852-0.027344 0.91652-0.011602 1.833-0.023203 2.7773-0.035156 2.2852 0.097656 2.2852 0.097656 3.2852 1.0977 1.6686 0.34463 3.3485 0.63535 5.0312 0.90234 1.039 0.16822 2.078 0.33645 3.1484 0.50977 1.6436 0.26007 1.6436 0.26007 3.3203 0.52539 7.2267 1.1505 14.374 2.3932 21.5 4.0625v2l2.75-0.1875c5.5843-0.034542 10.908 1.714 16.25 3.1875v2h5v2c1.1041 0.073477 1.1041 0.073477 2.2305 0.14844 0.97582 0.074766 1.9516 0.14953 2.957 0.22656 0.96293 0.069609 1.9259 0.13922 2.918 0.21094 2.9096 0.41622 5.2234 1.2128 7.8945 2.4141v2h5v2l3.75 0.375c3.1262 0.38246 5.5388 0.9305 8.25 2.625v2h4v2l2.625 0.25c3.8861 0.86357 6.26 2.3025 9.375 4.75v2l5 1v2h2v2l2.1875 0.6875c3.3971 1.5853 5.3875 3.4717 7.8125 6.3125v3h2v2h2v4h2c1.3112 4.9848 1.1471 9.9491 1.125 15.062 0.0038672 0.89783 0.0077344 1.7957 0.011719 2.7207-0.0012891 0.86689-0.0025781 1.7338-0.0039062 2.627-0.0016919 1.1777-0.0016919 1.1777-0.003418 2.3792-0.12818 2.1899-0.52549 4.1066-1.1294 6.2107h-2v4h-2v3h-2c-0.26812 0.63938-0.53625 1.2788-0.8125 1.9375-1.1875 2.0625-1.1875 2.0625-4.1875 3.0625v2h-2l-0.6875 1.9375-1.3125 2.0625c-1.6667 0.33333-3.3333 0.66667-5 1-1.3602 1.9676-1.3602 1.9676-2 4h-3v2l-5 1v2c-1.7234 0.84512-3.454 1.6756-5.1875 2.5-0.96293 0.46406-1.9259 0.92812-2.918 1.4062-2.8838 1.0897-4.8481 1.3165-7.8945 1.0938v4c1.5184 1.4934 1.5184 1.4934 3.5 2.625 1.9688 1.2266 1.9688 1.2266 3.5 2.375v2h2v2c0.99 0.33 1.98 0.66 3 1 1.1875 2.5625 1.1875 2.5625 2 5h2c0.64835 1.2696 1.2936 2.5407 1.9375 3.8125 0.35965 0.7077 0.7193 1.4154 1.0898 2.1445 1.5337 3.2214 2.1002 5.7913 2.1055 9.3164 0.0012891 0.825 0.0025781 1.65 0.0039062 2.5-0.0038672 0.85852-0.0077344 1.717-0.011719 2.6016 0.0038672 0.85078 0.0077344 1.7016 0.011719 2.5781-0.0064534 4.1431-0.089478 8.0075-1.1367 12.047h-2v4h-2v3h-2l-0.25 1.8125c-0.96577 2.8168-2.2387 3.6655-4.75 5.1875h-2l-1 4-4 1v2l-5 2v2l-5 1v2h-4v2h-3v2c-2.31 0.33-4.62 0.66-7 1v2h-4v2l-4 2 2 5h2v2l1.9375 0.6875c2.0625 1.3125 2.0625 1.3125 2.8125 3.9375l0.25 2.375h2v3h2v5h2c0.058141 3.5833 0.093644 7.1664 0.125 10.75 0.016758 1.0158 0.033516 2.0316 0.050781 3.0781 0.009668 1.4695 0.009668 1.4695 0.019531 2.9688 0.01571 1.3511 0.01571 1.3511 0.031738 2.7295-0.23983 2.6129-0.90393 4.2303-2.2271 6.4736h-2v4h-2l-1 5h-2v2h-2l-1 3h-2v2h-2v2h-2v2l-4 1v2h-3v2c-2.9055 2.0417-4.4014 3-8 3v2h-4v2c-6.625 3-6.625 3-10 3v2h-4v2c-9.41 3.4442-9.41 3.4442-14 3v2h-5v2l-12 1v2h-6v2h-8v2c-0.99902 0.13277-1.998 0.26555-3.0273 0.40234-1.2904 0.1766-2.5807 0.3532-3.9102 0.53516-1.2878 0.17402-2.5755 0.34805-3.9023 0.52734-3.0148 0.19678-3.0148 0.19678-4.1602 1.5352-1.6861 0.072055-3.375 0.083861-5.0625 0.0625-0.9191-0.0090234-1.8382-0.018047-2.7852-0.027344-0.71027-0.011602-1.4205-0.023203-2.1523-0.035156v2c-2.0508 0.22786-4.1016 0.45573-6.1523 0.68359-1.8591 0.13527-1.8591 0.13527-2.8477 1.3164-7.9401 1.2274-15.99 1.1146-24 1v2h-14v2c-0.56509 0.025056-1.1302 0.050112-1.7124 0.075928-2.5544 0.11587-5.1085 0.23864-7.6626 0.36157-0.88945 0.039316-1.7789 0.078633-2.6953 0.11914-0.85078 0.041895-1.7016 0.083789-2.5781 0.12695-0.78552 0.036658-1.571 0.073315-2.3804 0.11108-2.0464 0.096213-2.0464 0.096213-3.9712 1.2053-1.8019 0.15379-3.609 0.24728-5.4163 0.31201-1.1371 0.041341-2.2742 0.082681-3.4458 0.12527-1.8646 0.058114-1.8646 0.058114-3.7669 0.1174-1.2933 0.042046-2.5866 0.084091-3.9191 0.12741-13.447 0.41386-26.895 0.47123-40.348 0.44827-3.3866-0.0057371-6.773-0.002283-10.16 0.0034523-15.676 0.02233-31.293-0.23205-46.945-1.1338v-2h-19v-2h-16v-2c-0.82242 0.011602-1.6448 0.023203-2.4922 0.035156-6.9111 0.055863-13.65-0.16822-20.508-1.0352v-2h-10v-2h-9v-2c-1.7944 0.092812-1.7944 0.092812-3.625 0.1875-6.6316 0.031832-12.959-1.6543-19.375-3.1875v-2l-2.625 0.125c-3.6026-0.13343-5.9866-0.91029-9.375-2.125-1.7478-0.46663-3.4981-0.92408-5.25-1.375-4.6161-1.2401-8.9691-2.8061-13.379-4.6406-3.4235-1.4213-6.8953-2.697-10.371-3.9844v-2c-2.31-0.33-4.62-0.66-7-1v-2h-4v-2h-3v-2l-2.25-0.375c-2.5514-0.57987-4.4768-1.3621-6.75-2.625v-2h-2v-2l-2.375-0.9375c-2.625-1.0625-2.625-1.0625-4.625-2.0625v-2h-2c-1.625-1.375-1.625-1.375-3-3v-2h-2c-3-4.3846-3-4.3846-3-7h-2v-4h-2c-3.6326-11.352-2.9416-22.19 2-33h2l0.25-2.1875c0.90714-3.4018 2.3501-5.2672 4.75-7.8125h2l2-6-4-1v-2l-1.625-0.375c-2.8388-0.74706-5.5972-1.678-8.375-2.625v-2h-4v-2h-3v-2c-0.96938-0.26812-1.9388-0.53625-2.9375-0.8125l-3.0625-1.1875-1-3h-4v-2c-0.99-0.33-1.98-0.66-3-1v-2h-2v-2h-2v-2c-0.99-0.33-1.98-0.66-3-1v-2h-2v-4h-2c-3.1294-3.9719-3.2916-7.0423-3-12h-2v-14h2l1-10h2v-3h2v-2h2l1-4h2l1-3h3l1-4 4-1v-2h3v-2h-3v-2l-2.5-0.25c-4.2675-0.91447-7.6924-2.6722-11.5-4.75v-2l-2.25-0.375c-2.5514-0.57987-4.4768-1.3621-6.75-2.625v-2h-3v-2l-2.375-0.9375c-2.625-1.0625-2.625-1.0625-4.625-2.0625v-2h-2v-2h-2c-3-4.3846-3-4.3846-3-7h-2v-3h-2l-1-9h-2v-15h2l1-9h2l0.25-1.6875c0.98896-3.0493 2.5976-4.9644 4.75-7.3125h2v-2c1.375-1.625 1.375-1.625 3-3h2v-2c4.3846-3 4.3846-3 7-3v-2h4v-2c3.3668-2.4316 4.7335-3 9-3v-2c5.3946-3.0847 9.7901-4.5564 16-5v-2c3.5078-1.6036 6.1435-2.2204 10-2v-2l10-1v-2c0.79664-0.19336 1.5933-0.38672 2.4141-0.58594 6.5025-1.5835 6.5025-1.5835 12.898-3.5391 3.1978-1.0412 6.3622-1.4186 9.6875-1.875l1-1c2.333-0.040929 4.6671-0.042417 7 0v-2c17.149-3.5745 17.149-3.5745 26-3v-2c0.62648-0.060586 1.253-0.12117 1.8984-0.18359 0.81727-0.083789 1.6345-0.16758 2.4766-0.25391 0.81211-0.081211 1.6242-0.16242 2.4609-0.24609 2.2068-0.20731 2.2068-0.20731 4.1641-1.3164 7.3482-1.0842 14.582-1.1032 22-1v-2h13v-2c1.1434-0.060586 2.2868-0.12117 3.4648-0.18359 1.4909-0.084391 2.9818-0.16904 4.4727-0.25391 0.75475-0.039316 1.5095-0.078633 2.2871-0.11914 3.6948 0.11626 3.6948 0.11626 6.7754-1.4434 3.0876-0.21967 6.1581-0.37961 9.25-0.5 1.3927-0.060908 1.3927-0.060908 2.8135-0.12305 3.9903-0.17436 7.981-0.3376 11.972-0.50195 2.9051-0.1212 5.81-0.24796 8.7148-0.375 0.9104-0.035449 1.8208-0.070898 2.7588-0.10742 4.0739 0.21803 4.0739 0.21803 7.4912-1.3926 1.3754-0.1168 2.7565-0.16718 4.1367-0.18945 0.87761-0.016718 1.7552-0.033435 2.6594-0.050659 0.95415-0.013575 1.9083-0.027151 2.8914-0.041138 0.97284-0.018409 1.9457-0.036819 2.948-0.055786 4.1816-0.078977 8.3634-0.14652 12.545-0.21521 3.044-0.051602 6.0879-0.1089 9.1318-0.1665 0.95415-0.013575 1.9083-0.027151 2.8914-0.041138 0.87761-0.016718 1.7552-0.033435 2.6594-0.050659 0.77642-0.012528 1.5528-0.025056 2.3528-0.037964 2.2767-0.19334 2.4719-1.1332 4.8403-1.2717zm-44.056 24.12v2c-0.72179-0.0052368-1.4436-0.010474-2.1873-0.015869-3.2501-0.020704-6.5001-0.03377-9.7502-0.046631-1.1363-0.0083789-2.2726-0.016758-3.4434-0.025391-1.0796-0.0032226-2.1592-0.0064453-3.2715-0.0097656-1.0002-0.0052368-2.0005-0.010474-3.031-0.015869-2.2787-0.14829-2.2787-0.14829-3.3167 1.1135-1.402 0.14421-2.8104 0.22686-4.2188 0.28125-0.84949 0.037383-1.699 0.074766-2.5742 0.11328l-5.4141 0.21094c-0.84949 0.037383-1.699 0.074766-2.5742 0.11328-1.1766 0.045439-1.1766 0.045439-2.377 0.091797-1.8581-0.0046322-1.8581-0.0046322-2.8418 1.1895-1.9962 0.22882-3.9995 0.39532-6.0039 0.53516-1.8224 0.13052-1.8224 0.13052-3.6816 0.26367-1.2794 0.087012-2.5588 0.17402-3.877 0.26367-1.2833 0.090879-2.5665 0.18176-3.8887 0.27539-3.1827 0.2248-6.3656 0.44531-9.5488 0.66211v2h-13v2c-0.71027-0.011602-1.4205-0.023203-2.1523-0.035156-0.9191-0.0090234-1.8382-0.018047-2.7852-0.027344-0.91652-0.011602-1.833-0.023203-2.7773-0.035156-2.2511-0.16183-2.2511-0.16183-3.2852 1.0977-1.338 0.22513-2.6857 0.39361-4.0352 0.53516-1.2133 0.13052-1.2133 0.13052-2.4512 0.26367-0.85014 0.087012-1.7003 0.17402-2.5762 0.26367-0.854 0.090879-1.708 0.18176-2.5879 0.27539-2.1161 0.22462-4.2328 0.44386-6.3496 0.66211v2h-9v2c-1.0106-0.04125-2.0212-0.0825-3.0625-0.125-4.0206 0.12764-7.1053 0.96165-10.938 2.125-2.3279 0.3695-4.6605 0.71352-7 1v2h-7v2l-2.875 0.375c-4.7475 0.67265-9.4314 1.6523-14.125 2.625v2h-4v2l-1.9375-0.1875c-4.2974 0.26311-8.0413 1.7157-12.062 3.1875v2h-3v2c-0.63938 0.0825-1.2788 0.165-1.9375 0.25-4.2679 1.0452-8.0936 2.8909-12.062 4.75v2l-2.375 0.9375c-2.5483 0.99125-2.5483 0.99125-4.625 2.0625v2h-2c-1.6667 1.3333-1.6667 1.3333-3 3v2h-2v4h-2v5h2l0.25 1.6875c1.2581 3.8792 3.4856 6.5749 7 8.625l1.75 0.6875 3-2v-2h2v-2h2v-2l3-1v-2h2v-2l1.8125-0.375c2.4498-0.57976 2.4498-0.57976 5.1875-2.625v-2h4v-2l5-1v-2c0.54141-0.12246 1.0828-0.24492 1.6406-0.37109 2.7722-0.73896 5.418-1.6982 8.1094-2.6914 0.98484-0.36223 1.9697-0.72445 2.9844-1.0977 0.74766-0.27715 1.4953-0.5543 2.2656-0.83984v-2h4v-2h5v-2c0.56848-0.048984 1.137-0.097969 1.7227-0.14844 4.9882-0.48299 9.5033-1.3279 14.277-2.8516v-2h5v-2l12-1v-2h7v-2c1.2994 0.020625 2.5988 0.04125 3.9375 0.0625 1.3542 0.021495 2.7101 0.008982 4.0625-0.0625l1-1c2.6886-0.39994 5.3635-0.75135 8.0625-1.0625 0.75861-0.090879 1.5172-0.18176 2.2988-0.27539 1.8791-0.22455 3.7588-0.44382 5.6387-0.66211v-2c0.95713 0.017402 0.95713 0.017402 1.9336 0.035156 0.82629 0.0090234 1.6526 0.018047 2.5039 0.027344 1.2356 0.017402 1.2356 0.017402 2.4961 0.035156 2.058 0.13502 2.058 0.13502 3.0664-1.0977 1.8489-0.23364 3.7049-0.41304 5.5625-0.5625 1.0119-0.083789 2.0238-0.16758 3.0664-0.25391 0.78246-0.060586 1.5649-0.12117 2.3711-0.18359v-2c0.66645 0.011602 1.3329 0.023203 2.0195 0.035156 6.6841 0.065438 13.357-0.045311 19.98-1.0352l1-1c2.8588-0.23701 5.6988-0.42219 8.5625-0.5625 0.80631-0.043184 1.6126-0.086367 2.4434-0.13086 1.9978-0.10639 3.996-0.20705 5.9941-0.30664v-2c0.57033 0.0052368 1.1407 0.010474 1.7283 0.015869 2.5697 0.020713 5.1394 0.033773 7.7092 0.046631 1.3467 0.012568 1.3467 0.012568 2.7207 0.025391 1.281 0.004834 1.281 0.004834 2.5879 0.0097656 0.79076 0.0052368 1.5815 0.010474 2.3962 0.015869 1.8736 0.091434 1.8736 0.091434 2.8577-1.1135 1.5665-0.15735 3.1398-0.24827 4.7129-0.31174 0.99931-0.041291 1.9986-0.082582 3.0282-0.12512 1.0903-0.038722 2.1807-0.077443 3.304-0.11734 1.1272-0.04211 2.2544-0.084221 3.4158-0.12761 11.606-0.40362 23.204-0.46377 34.816-0.45101 2.2337-6.7722e-4 4.4674-0.0016507 6.7011-0.0028992 4.6377-0.0014577 9.2753 6.1425e-4 13.913 0.0053406 5.8629 0.0056927 11.726 0.0024087 17.589-0.0035725 4.5999-0.0036612 9.1997-0.0024418 13.8 1.2779e-4 2.1583 6.5418e-4 4.3167-1.0442e-4 6.475-0.0024796 11.891-0.010221 23.762 0.15412 35.646 0.5821 1.6936 0.058082 1.6936 0.058082 3.4214 0.11734 1.0406 0.041291 2.0812 0.082582 3.1533 0.12512 1.3851 0.053719 1.3851 0.053719 2.7982 0.10852 2.2264 0.20321 2.2264 0.20321 4.2264 1.2032 3.6558 0.26507 7.3055 0.44486 10.967 0.60547 5.9325 0.29384 5.9325 0.29384 7.0332 1.3945 2.8627 0.073252 5.7007 0.092382 8.5625 0.0625 0.80631-0.0045117 1.6126-0.0090234 2.4434-0.013672 1.9981-0.011823 3.9961-0.029759 5.9941-0.048828v2c0.6915 0.055349 1.383 0.1107 2.0955 0.16772 3.1144 0.25191 6.2282 0.51075 9.342 0.76978 1.6329 0.13052 1.6329 0.13052 3.2988 0.26367 1.5517 0.13052 1.5517 0.13052 3.1348 0.26367 0.95834 0.078552 1.9167 0.1571 2.9041 0.23804 2.2249 0.29712 2.2249 0.29712 3.2249 1.2971 1.662 0.20776 3.3303 0.36718 5 0.5 4.8889 0.38889 4.8889 0.38889 6 1.5 1.5193 0.0718 3.0417 0.08392 4.5625 0.0625 0.82629-0.0090234 1.6526-0.018047 2.5039-0.027344 0.63809-0.011602 1.2762-0.023203 1.9336-0.035156v2c1.1434 0.13277 2.2868 0.26555 3.4648 0.40234 1.4909 0.17816 2.9818 0.35656 4.4727 0.53516 1.1321 0.13052 1.1321 0.13052 2.2871 0.26367 5.6621 0.68555 5.6621 0.68555 6.7754 1.7988 2.333 0.040929 4.6671 0.042417 7 0v2h7v2c0.78504 0.10957 1.5701 0.21914 2.3789 0.33203 9.6378 1.4545 9.6378 1.4545 13.559 3.293 3.0207 1.3563 4.807 1.671 8.0625 1.375v2c2.97 0.33 5.94 0.66 9 1v2h5v2h5v2c2.31 0.33 4.62 0.66 7 1v2h4v2l9 3v2h3v2c3.2211 2.3159 3.2211 2.3159 7 3v2l5 2v2c1.6222 1.7099 3.2941 3.3735 5 5l3 3c4.0212-2.0649 6.0133-3.9221 8-8v-2h2c0.24428-5.7974 0.24428-5.7974-2-11h-2c-0.26812-0.63938-0.53625-1.2788-0.8125-1.9375-1.0742-2.3938-1.0742-2.3938-4.1875-3.0625v-2h-2l-1-3h-4v-2h-3v-2c-1.5781-0.84325-3.1627-1.6742-4.75-2.5l-2.6719-1.4062c-2.7251-1.3541-2.7251-1.3541-6.5781-1.0938v-2c-1.4355-0.5056-2.8735-1.0043-4.3125-1.5-0.80051-0.27844-1.601-0.55688-2.4258-0.84375-2.3494-0.79558-2.3494-0.79558-5.2617-0.65625v-2h-6v-2l-10-1v-2c-1.3032-0.29004-1.3032-0.29004-2.6328-0.58594-1.1524-0.26039-2.3048-0.52078-3.4922-0.78906-1.7054-0.38285-1.7054-0.38285-3.4453-0.77344-3.4297-0.85156-3.4297-0.85156-6.6211-1.918-3.2447-1.0785-6.4283-1.4696-9.8086-1.9336l-1-1c-2.6706-0.14115-5.3243-0.042471-8 0v-2l-3.9375-0.4375c-3.9375-0.4375-3.9375-0.4375-5.0625-1.5625-2.8132-0.37549-5.6156-0.70658-8.4375-1-8.2962-0.86687-8.2962-0.86687-10.562-2-1.707-0.06996-3.4167-0.084402-5.125-0.0625-1.3651 0.013535-1.3651 0.013535-2.7578 0.027344-1.048 0.017402-1.048 0.017402-2.1172 0.035156v-2h-12v-2c-9.371-0.88495-18.598-1.117-28-1v-2h-19v-2h-25v-2c-45.032-1.2552-89.968-1.2552-135 0zm15 35v2h-25v2c-0.57033-0.0052368-1.1407-0.010474-1.7283-0.015869-2.5697-0.020713-5.1394-0.033773-7.7092-0.046631-0.89783-0.0083789-1.7957-0.016758-2.7207-0.025391-0.854-0.0032226-1.708-0.0064453-2.5879-0.0097656-0.79076-0.0052368-1.5815-0.010474-2.3962-0.015869-1.8736-0.091434-1.8736-0.091434-2.8577 1.1135-1.8386 0.21613-3.6845 0.37129-5.5312 0.5-1.6803 0.12375-1.6803 0.12375-3.3945 0.25-2.3828 0.16667-4.7656 0.33333-7.1484 0.5-1.6803 0.12375-1.6803 0.12375-3.3945 0.25-1.0358 0.072188-2.0715 0.14438-3.1387 0.21875-2.3428 0.024858-2.3428 0.024858-3.3926 1.2812-2.8397 0.32351-5.6807 0.51304-8.5312 0.71875-2.4101 0.015103-2.4101 0.015103-3.4688 1.2812-1.8877 0.35828-3.7862 0.65999-5.6875 0.9375-1.1627 0.17145-2.3255 0.34289-3.5234 0.51953-1.2504 0.17918-2.5008 0.35836-3.7891 0.54297-1.3255 0.19136-2.651 0.38277-3.9766 0.57422-3.3405 0.47965-6.6817 0.95483-10.023 1.4258v2h-9v2l-14 1v2c-0.68062-0.04125-1.3612-0.0825-2.0625-0.125-3.5367 0.1505-6.5707 1.0688-9.9375 2.125v2l-10 1v2h-5v2l-2 0.375c-3.697 0.77021-7.3401 1.6945-11 2.625v2h-3v2h-4v2c-3.465 0.495-3.465 0.495-7 1v2l-5 2v2l-5 1v2h-2v2h-2l-1 3h3v2h5v2c1.7695 0.50471 3.5407 1.0036 5.3125 1.5 0.98613 0.27844 1.9723 0.55688 2.9883 0.84375 2.7221 0.77437 2.7221 0.77437 5.6992 0.65625v2h6v2h7v2l12 1v2h7v2h8v2l16 1v2c0.71027 0.060586 1.4205 0.12117 2.1523 0.18359 1.3787 0.12568 1.3787 0.12568 2.7852 0.25391 1.3748 0.12182 1.3748 0.12182 2.7773 0.24609 2.2852 0.31641 2.2852 0.31641 3.2852 1.3164 2.7925 0.37625 5.5737 0.70705 8.375 1 1.5498 0.16368 3.0993 0.33023 4.6484 0.5 0.69013 0.072188 1.3803 0.14438 2.0913 0.21875 1.8853 0.28125 1.8853 0.28125 4.8853 1.2812 2.3949 0.069701 4.7917 0.08448 7.1875 0.0625 1.2723-0.0090234 2.5446-0.018047 3.8555-0.027344 0.97582-0.011602 1.9516-0.023203 2.957-0.035156v2c1.0712 0.060586 2.1424 0.12117 3.2461 0.18359 1.3972 0.084392 2.7943 0.16904 4.1914 0.25391 0.70705 0.039316 1.4141 0.078633 2.1426 0.11914 5.3066 0.33008 5.3066 0.33008 6.4199 1.4434 2.639 0.21917 5.2583 0.37922 7.9023 0.5 0.7929 0.040605 1.5858 0.081211 2.4027 0.12305 2.5439 0.13012 5.0881 0.25421 7.6324 0.37695 3.3427 0.1616 6.6851 0.32904 10.027 0.5 1.161 0.053174 1.161 0.053174 2.3454 0.10742 5.4642 0.27984 5.4642 0.27984 7.6897 1.3926 2.5395 0.14438 5.0561 0.234 7.5977 0.28125 0.74946 0.018409 1.4989 0.036819 2.2711 0.055786 3.213 0.078805 6.4261 0.14656 9.6393 0.21521 2.3425 0.051608 4.6848 0.10889 7.0271 0.1665 0.73227 0.013575 1.4645 0.027151 2.219 0.041138 5.133 0.12728 5.133 0.12728 6.2458 1.2401 2.6062 0.10042 5.186 0.13617 7.7927 0.12939 0.81623 0.0017523 1.6325 0.0035046 2.4734 0.0053101 2.7121 0.0044198 5.4241 0.0014798 8.1362-0.0018921 1.8771 6.7307e-4 3.7542 0.0016431 5.6312 0.0028992 3.9402 0.0014772 7.8804-6.7804e-4 11.821-0.0053406 5.0589-0.0056934 10.118-0.0024209 15.177 0.0035725 3.8784 0.0036084 7.7567 0.0024657 11.635-1.2779e-4 1.8656-6.687e-4 3.7312 1.572e-4 5.5968 0.0024796 2.6051 0.0025306 5.2101-0.00132 7.8152-0.0069008 0.7767 0.0020242 1.5534 0.0040485 2.3536 0.006134 3.9126 0.062882 3.9126 0.062882 7.5685-1.1355 2.4434-0.14427 4.863-0.23396 7.3086-0.28125 0.72252-0.018409 1.445-0.036819 2.1895-0.055786 2.3131-0.058801 4.6262-0.11159 6.9394-0.16296 3.0405-0.067687 6.0808-0.14139 9.1211-0.21875 1.0501-0.020363 1.0501-0.020363 2.1214-0.041138 3.0278-0.077397 5.4249-0.2751 8.32-1.2401 2.7993-0.22256 5.5831-0.39888 8.3867-0.53516 1.2255-0.064466 1.2255-0.064466 2.4758-0.13023 2.6081-0.13629 5.2165-0.26677 7.825-0.39711 1.7689-0.091414 3.5378-0.18321 5.3066-0.27539 4.3351-0.22509 8.6704-0.44497 13.006-0.66211v-2c0.99902 0.011602 1.998 0.023203 3.0273 0.035156 1.9355 0.013535 1.9355 0.013535 3.9102 0.027344 1.2878 0.011602 2.5755 0.023203 3.9023 0.035156 3.0231 0.26767 3.0231 0.26767 4.1602-1.0977 1.9756-0.18773 3.9562-0.32422 5.9375-0.4375 4.9898-0.34281 9.6872-1.0114 14.562-2.0859 4.4594-0.85008 8.9766-1.1498 13.5-1.4766v-2c1.0654 0.017402 1.0654 0.017402 2.1523 0.035156 1.3787 0.013535 1.3787 0.013535 2.7852 0.027344 0.91652 0.011602 1.833 0.023203 2.7773 0.035156 2.2511 0.16183 2.2511 0.16183 3.2852-1.0977 2.522-0.39943 5.0296-0.7508 7.5625-1.0625 0.71092-0.090879 1.4218-0.18176 2.1543-0.27539 1.7606-0.2245 3.5218-0.44379 5.2832-0.66211v-2l3.5 0.1875c3.8195 0.0066775 6.6655-0.89383 10.203-2.3867 4.6011-1.6041 9.4872-2.1194 14.297-2.8008v-2h7v-2h5v-2l3.875-0.25c5.4655-0.58218 10.143-2.5139 15.125-4.75v-2h3l-1-3h-2v-2h-2v-2c-3.2211-2.3159-3.2211-2.3159-7-3v-2h-3v-2c-2.97-0.99-5.94-1.98-9-3v-2h-5v-2c-2.31-0.33-4.62-0.66-7-1v-2h-5v-2c-1.7268-0.50806-3.4566-1.0061-5.1875-1.5-0.96293-0.27844-1.9259-0.55688-2.918-0.84375-2.748-0.62303-5.0905-0.77928-7.8945-0.65625v-2h-5v-2h-7v-2l-14-1v-2l-3.9375-0.4375c-3.9375-0.4375-3.9375-0.4375-5.0625-1.5625-1.9088-0.35716-3.8281-0.65932-5.75-0.9375-1.1653-0.17273-2.3306-0.34547-3.5312-0.52344-1.2272-0.17789-2.4544-0.35578-3.7188-0.53906-2.4172-0.35039-4.8339-0.70436-7.25-1.0625-1.0777-0.15598-2.1553-0.31195-3.2656-0.47266-2.4844-0.46484-2.4844-0.46484-3.4844-1.4648-1.8529-0.072265-3.7083-0.083812-5.5625-0.0625-1.0119 0.0090234-2.0238 0.018047-3.0664 0.027344-0.78246 0.011602-1.5649 0.023203-2.3711 0.035156v-2c-0.77714-0.055349-1.5543-0.1107-2.355-0.16772-3.507-0.25222-7.0135-0.51092-10.52-0.76978-1.2233-0.087012-2.4466-0.17402-3.707-0.26367-1.1666-0.087012-2.3332-0.17402-3.5352-0.26367-1.0788-0.078552-2.1576-0.1571-3.269-0.23804-2.6138-0.29712-2.6138-0.29712-4.6138-1.2971-2.8367-0.20756-5.6596-0.37407-8.5-0.5-8.2297-0.36486-8.2297-0.36486-10.5-1.5-1.8134-0.084714-3.6299-0.10721-5.4453-0.097656-1.0764 0.0032226-2.1527 0.0064453-3.2617 0.0097656-1.6919 0.012568-1.6919 0.012568-3.418 0.025391-1.1357 0.0045117-2.2713 0.0090234-3.4414 0.013672-2.8113 0.011812-5.6224 0.028283-8.4336 0.048828v-2h-105zm-181 89v2c-2.97 0.99-5.94 1.98-9 3v2h-2v2h-3v2l-4 1v2h-2l-1 4h-2c-3.2714 5.2342-3.1064 8.1661-2 14h2v3h2c0.2475 0.59812 0.495 1.1962 0.75 1.8125 1.4307 2.5038 2.8192 3.6682 5.25 5.1875h2v2h2v2l1.9375 0.375 2.0625 0.625 1 2h4v2c6.7598 3.2468 13.506 5.9583 20.664 8.2031 2.3359 0.79688 2.3359 0.79688 3.3359 1.7969 1.6662 0.040638 3.3339 0.042721 5 0v2h6v2c1.8939 0.50744 3.7902 1.0056 5.6875 1.5 1.0557 0.27844 2.1115 0.55688 3.1992 0.84375 2.8247 0.59542 5.2416 0.78411 8.1133 0.65625v2h7v2c0.99902 0.13277 1.998 0.26555 3.0273 0.40234 1.2904 0.1766 2.5807 0.3532 3.9102 0.53516 1.9317 0.26104 1.9317 0.26104 3.9023 0.52734 3.1602 0.53516 3.1602 0.53516 4.1602 1.5352 1.5193 0.0718 3.0417 0.08392 4.5625 0.0625 0.82629-0.0090234 1.6526-0.018047 2.5039-0.027344 0.63809-0.011602 1.2762-0.023203 1.9336-0.035156v2h9v2c7.0264 0.74806 13.934 1.1379 21 1v2h14v2h14v2c15.008 1.0126 29.962 1.1144 45 1v2c11.596 0.023204 23.193 0.040956 34.789 0.051812 5.3851 0.0052112 10.77 0.012277 16.155 0.023627 5.2001 0.010892 10.4 0.016851 15.6 0.019438 1.9806 0.0018429 3.9613 0.0054417 5.9419 0.010853 2.7812 0.0072938 5.5623 0.0082574 8.3436 0.0077953 1.2192 0.0053929 1.2192 0.0053929 2.463 0.010895 4.9944-0.0089365 9.7586-0.44803 14.707-1.1244 1.6781-0.12328 3.358-0.22548 5.0391-0.29712 1.3505-0.059949 1.3505-0.059949 2.7283-0.12111 0.94303-0.038586 1.8861-0.077173 2.8577-0.11693 1.4813-0.064466 1.4813-0.064466 2.9924-0.13023 3.1274-0.13541 6.255-0.26633 9.3826-0.39711 2.1315-0.091499 4.263-0.18329 6.3945-0.27539 5.2017-0.22411 10.404-0.44455 15.605-0.66211v-2h16v-2c0.85465 0.011602 1.7093 0.023203 2.5898 0.035156 1.1047 0.0090234 2.2095 0.018047 3.3477 0.027344 1.1021 0.011602 2.2043 0.023203 3.3398 0.035156 2.6371 0.21497 2.6371 0.21497 3.7227-1.0977 1.473-0.21426 2.9546-0.37045 4.4375-0.5 0.89461-0.0825 1.7892-0.165 2.7109-0.25 1.901-0.16667 3.8021-0.33333 5.7031-0.5 0.89461-0.0825 1.7892-0.165 2.7109-0.25 1.2394-0.10828 1.2394-0.10828 2.5039-0.21875 1.9366-0.084903 1.9366-0.084903 2.9336-1.2812 2.3182-0.32098 4.6378-0.51221 6.9688-0.71875 2.0231-0.071908 2.0231-0.071908 3.0312-1.2812 1.9407-0.23422 3.8816-0.46621 5.8242-0.68359 2.4144-0.29991 2.4144-0.29991 5.6133-1.3164 4.1797-1.1733 8.2494-1.6283 12.562-2v-2l2.5 0.1875c3.5012-0.18757 6.0438-1.0693 9.2656-2.3867 3.9631-1.4203 8.0962-2.08 12.234-2.8008v-2h5v-2h6v-2l8-1v-2h4v-2c0.9075-0.12375 1.815-0.2475 2.75-0.375 2.8397-0.5461 4.7759-1.1976 7.25-2.625v-2h4v-2l5-1v-2h3v-2h2v-2c0.59812-0.0825 1.1962-0.165 1.8125-0.25 2.8168-0.96577 3.6655-2.2387 5.1875-4.75v-2h2v-3h2v-7h-2v-4c-2.2918-2.792-2.2918-2.792-5-5h-2v-2c-3.878-3.9336-3.878-3.9336-9-5v-2l-5-1v-2h-3v-2h-4v-2h-4v2l-2.5-0.1875c-3.4673 0.18575-5.8258 1.0786-9 2.3867-5.3197 1.704-10.97 2.1406-16.5 2.8008v2c-1.2994-0.020625-2.5988-0.04125-3.9375-0.0625-1.3542-0.021495-2.7101-0.008982-4.0625 0.0625l-1 1c-2.0573 0.31923-4.1161 0.51161-6.1875 0.71875-1.8293 0.10123-1.8293 0.10123-2.8125 1.2812-1.4844 0.22624-2.9778 0.39413-4.4727 0.53516-0.89912 0.087012-1.7982 0.17402-2.7246 0.26367-0.94553 0.087012-1.8911 0.17402-2.8652 0.26367-1.4241 0.13632-1.4241 0.13632-2.877 0.27539-2.3532 0.22467-4.7067 0.44519-7.0605 0.66211v2h-12v2c-0.84305-0.011602-1.6861-0.023203-2.5547-0.035156-1.0957-0.0090234-2.1914-0.018047-3.3203-0.027344-1.0905-0.011602-2.1811-0.023203-3.3047-0.035156-2.7721-0.099787-2.7721-0.099787-4.8203 1.0977-2.3215 0.22448-4.6485 0.3932-6.9766 0.53516-0.68525 0.042977-1.3705 0.085954-2.0765 0.13023-2.1904 0.13644-4.3811 0.26684-6.5719 0.39711-1.4844 0.0914-2.9688 0.18319-4.4531 0.27539-3.6404 0.22525-7.281 0.4451-10.922 0.66211v2h-23v2c-0.92861-0.0052368-1.8572-0.010474-2.814-0.015869-3.4403-0.017027-6.8805-0.029574-10.321-0.039062-1.4899-0.0050335-2.9798-0.011861-4.4697-0.020508-2.1397-0.012109-4.2793-0.017799-6.4189-0.022217-1.9324-0.0078552-1.9324-0.0078552-3.9038-0.015869-2.9868-0.1019-2.9868-0.1019-5.0728 1.1135-2.8976 0.098624-5.7711 0.13627-8.6689 0.12939-0.89774 0.0017523-1.7955 0.0035046-2.7204 0.0053101-2.9796 0.0044152-5.9592 0.0014807-8.9388-0.0018921-2.0679 6.7337e-4 -4.1357 0.0016437-6.2036 0.0028992-4.3412 0.0014767-8.6823-6.759e-4 -13.023-0.0053406-5.5595-0.005683-11.119-0.0024272-16.679 0.0035725-4.274 0.0036184-8.548 0.0024609-12.822-1.2779e-4 -2.0493-6.6645e-4 -4.0986 1.4933e-4 -6.1478 0.0024796-2.87 0.002546-5.7399-0.0013421-8.6099-0.0069008-0.8449 0.0020242-1.6898 0.0040485-2.5603 0.006134-4.3305-0.015499-8.3559-0.325-12.626-1.1355-2.2359-0.078065-4.4737-0.10792-6.7109-0.097656-1.2439 0.0032226-2.4879 0.0064453-3.7695 0.0097656-1.2852 0.0083789-2.5704 0.016758-3.8945 0.025391-1.3084 0.0045117-2.6168 0.0090234-3.9648 0.013672-3.2201 0.011752-6.4401 0.028183-9.6602 0.048828v-2c-0.99181-0.037584-0.99181-0.037584-2.0037-0.075928-2.9782-0.1156-5.956-0.23849-8.9338-0.36157-1.0409-0.039316-2.0818-0.078633-3.1543-0.11914-1.484-0.062842-1.484-0.062842-2.998-0.12695-0.91644-0.036658-1.8329-0.073315-2.7771-0.11108-2.1331-0.20532-2.1331-0.20532-3.1331-1.2053-2.5687-0.24449-5.1124-0.42723-7.6875-0.5625-1.1368-0.063688-1.1368-0.063688-2.2966-0.12866-7.0094-0.36406-13.997-0.40894-21.016-0.30884v-2c-1.3903-0.090879-1.3903-0.090879-2.8086-0.18359-1.1975-0.083789-2.3951-0.16758-3.6289-0.25391-1.195-0.081211-2.3899-0.16242-3.6211-0.24609-2.9414-0.31641-2.9414-0.31641-3.9414-1.3164-1.996-0.20889-3.9974-0.36775-6-0.5-5.8889-0.38889-5.8889-0.38889-7-1.5-1.3267-0.21322-2.6626-0.36997-4-0.5l-2.4375-0.25-2.5625-0.25c-1.6671-0.16264-3.3338-0.3291-5-0.5l-2.25-0.21875c-1.75-0.28125-1.75-0.28125-2.75-1.2812-2.6706-0.14115-5.3243-0.042471-8 0v-2h-9v-2l-15-1v-2h-7v-2c-7.1167-2.1576-7.1167-2.1576-14 0zm29 89v2l-2.375 0.9375c-2.5483 0.99125-2.5483 0.99125-4.625 2.0625v2h-2c-1.6667 1.3333-1.6667 1.3333-3 3v2h-2c-2.2965 2.5615-3 3.4797-3 7h-2c-0.24428 5.7974-0.24428 5.7974 2 11h2l1 5h2v2c3.2211 2.3159 3.2211 2.3159 7 3v2h2v2c3.8043 2.2014 3.8043 2.2014 8 3v2h4v2c2.31 0.33 4.62 0.66 7 1v2h5v2h4v2c0.63809 0.13277 1.2762 0.26555 1.9336 0.40234 0.82629 0.1766 1.6526 0.3532 2.5039 0.53516 0.82371 0.17402 1.6474 0.34805 2.4961 0.52734 2.0664 0.53516 2.0664 0.53516 3.0664 1.5352 1.6662 0.040638 3.3339 0.042721 5 0v2c0.78504 0.19336 1.5701 0.38672 2.3789 0.58594 1.0506 0.26039 2.1012 0.52078 3.1836 0.78906 1.0983 0.27199 2.1966 0.54398 3.3281 0.82422 2.3247 0.59871 4.6299 1.2744 6.9219 1.9883 3.5024 0.89276 6.5878 0.95943 10.188 0.8125v2h7v2c1.2878 0.13277 2.5755 0.26555 3.9023 0.40234 1.6784 0.17816 3.3568 0.35655 5.0352 0.53516 0.85014 0.087012 1.7003 0.17402 2.5762 0.26367 0.80889 0.087012 1.6178 0.17402 2.4512 0.26367 1.1233 0.11783 1.1233 0.11783 2.2693 0.23804 1.7659 0.29712 1.7659 0.29712 2.7659 1.2971 1.662 0.20776 3.3303 0.36718 5 0.5 4.8889 0.38889 4.8889 0.38889 6 1.5 2.0196 0.072441 4.0417 0.083772 6.0625 0.0625 1.6571-0.013535 1.6571-0.013535 3.3477-0.027344 0.85465-0.011602 1.7093-0.023203 2.5898-0.035156v2c11.024 1.0071 21.94 1.1061 33 1v2c1.0247 0.025056 2.0494 0.050112 3.1052 0.075928 3.7889 0.093917 7.5776 0.19418 11.366 0.29639 1.6422 0.043409 3.2845 0.085079 4.9268 0.125 2.3557 0.05756 4.7112 0.12129 7.0667 0.18628 0.73855 0.016712 1.4771 0.033425 2.238 0.050644 5.1833 0.15189 5.1833 0.15189 6.2971 1.2658 1.3454 0.097853 2.6959 0.12798 4.0449 0.12939 0.85759 0.0031522 1.7152 0.0063043 2.5988 0.009552 0.93227-0.0020242 1.8645-0.0040485 2.8251-0.006134 0.95064 9.5672e-4 1.9013 0.0019134 2.8807 0.0028992 2.0142 6.8189e-4 4.0284-0.001173 6.0426-0.0053406 3.0946-0.0053481 6.1891-5.532e-5 9.2837 0.0063477 1.9518-6.6078e-4 3.9036-0.0019419 5.8555-0.0039062 0.93227 0.0020242 1.8645 0.0040485 2.8251 0.006134 0.85759-0.0031522 1.7152-0.0063043 2.5988-0.009552 1.138-0.0011934 1.138-0.0011934 2.299-0.0024109 1.7747 0.062227 1.7747 0.062227 2.746-1.127 2.4345-0.1475 4.8443-0.23489 7.2812-0.28125 0.72868-0.018409 1.4574-0.036819 2.2081-0.055786 3.1302-0.078929 6.2606-0.1465 9.391-0.21521 2.2796-0.051625 4.559-0.10892 6.8384-0.1665 0.71354-0.013575 1.4271-0.027151 2.1622-0.041138 3.346 0.20062 3.346 0.20062 6.119-1.2401 2.3712-0.23092 4.7204-0.40313 7.0977-0.53516 1.0633-0.064466 1.0633-0.064466 2.1481-0.13023 2.272-0.13674 4.5444-0.26699 6.8168-0.39711 1.5371-0.091371 3.0742-0.18316 4.6113-0.27539 3.7751-0.22559 7.5505-0.44536 11.326-0.66211v-2h14v-2c1.0654 0.017402 1.0654 0.017402 2.1523 0.035156 1.3787 0.013535 1.3787 0.013535 2.7852 0.027344 0.91652 0.011602 1.833 0.023203 2.7773 0.035156 2.2511 0.16183 2.2511 0.16183 3.2852-1.0977 2.8553-0.40038 5.6974-0.75182 8.5625-1.0625 0.80631-0.090879 1.6126-0.18176 2.4434-0.27539 1.9976-0.22458 3.9958-0.44384 5.9941-0.66211v-2l3.5 0.1875c3.8195 0.0066775 6.6655-0.89383 10.203-2.3867 4.6011-1.6041 9.4872-2.1194 14.297-2.8008v-2c0.68062 0.04125 1.3612 0.0825 2.0625 0.125 3.5367-0.1505 6.5707-1.0688 9.9375-2.125v-2c2.97-0.33 5.94-0.66 9-1v-2h5v-2l1.625-0.375c2.8388-0.74706 5.5972-1.678 8.375-2.625v-2h4v-2h3v-2l5-1v-2l2.8125-0.8125c2.9453-1.0973 4.3377-1.7211 6.1875-4.1875v-2h2v-2h2l1-5h2v-11h-2l-1-5-4-1v-2h-2v-2h-3v-2c-2.5615-2.2965-3.4797-3-7-3v-2h-9v2c-1.0106-0.04125-2.0212-0.0825-3.0625-0.125-4.0206 0.12764-7.1053 0.96165-10.938 2.125-2.3279 0.3695-4.6605 0.71352-7 1v2c-1.2994-0.020625-2.5988-0.04125-3.9375-0.0625-1.3542-0.021495-2.7101-0.008982-4.0625 0.0625l-1 1c-2.6028 0.55111-5.1923 1.0466-7.8125 1.5-0.76304 0.13382-1.5261 0.26764-2.3123 0.40552-6.2697 1.0643-12.524 1.7396-18.875 2.0945v2h-11v2c-0.8366-0.023203-1.6732-0.046406-2.5352-0.070312-7.6599-0.11876-14.778 0.42813-22.359 1.5625-5.6454 0.77219-11.335 0.95227-17.024 1.1658-3.8557-0.21383-3.8557-0.21383-7.0813 1.342-1.9134 0.14591-3.8318 0.22733-5.75 0.28125-1.1653 0.037383-2.3306 0.074766-3.5312 0.11328-2.4792 0.070312-4.9583 0.14062-7.4375 0.21094-1.1653 0.037383-2.3306 0.074766-3.5312 0.11328-1.6165 0.045439-1.6165 0.045439-3.2656 0.091797-2.4258-0.086261-2.4258-0.086261-3.4844 1.1895-3.0029 0.10063-5.9828 0.13615-8.9861 0.12939-0.94303 0.0017523-1.8861 0.0035046-2.8577 0.0053101-3.1341 0.0044206-6.2682 0.0014795-9.4023-0.0018921-2.1685 6.7303e-4 -4.3371 0.001643-6.5056 0.0028992-4.5522 0.0014773-9.1045-6.7843e-4 -13.657-0.0053406-5.8458-0.0056939-11.692-0.0024206-17.537 0.0035725-4.4806 0.0036076-8.9611 0.002466-13.442-1.2779e-4 -2.1559-6.6889e-4 -4.3117 1.5784e-4 -6.4676 0.0024796-3.0098 0.0025294-6.0196-0.0013184-9.0294-0.0069008-1.3474 0.0030363-1.3474 0.0030363-2.722 0.006134-6.165-0.021266-6.165-0.021266-8.3935-1.1355-1.9594-0.085102-3.9216-0.10718-5.8828-0.097656-1.7499 0.004834-1.7499 0.004834-3.5352 0.0097656-1.2233 0.0083789-2.4466 0.016758-3.707 0.025391-1.2311 0.0045117-2.4621 0.0090234-3.7305 0.013672-3.0482 0.011815-6.0964 0.028288-9.1445 0.048828v-2c-0.81453-0.050112-1.6291-0.10022-2.4683-0.15186-27.44-1.707-27.44-1.707-38.282-2.9106-0.72429-0.079116-1.4486-0.15823-2.1948-0.23975-4.7877-0.56403-4.7877-0.56403-7.0552-1.6978-2.3308-0.30792-4.6624-0.50895-7.0039-0.71875-1.9961-0.28125-1.9961-0.28125-2.9961-1.2812-2.9799-0.37579-5.9494-0.70691-8.9375-1-1.6553-0.16311-3.3103-0.32962-4.9648-0.5-0.73726-0.072188-1.4745-0.14438-2.2341-0.21875-1.8635-0.28125-1.8635-0.28125-3.8635-1.2812-2.3308-0.30792-4.6624-0.50895-7.0039-0.71875-1.9961-0.28125-1.9961-0.28125-2.9961-1.2812-1.155-0.165-2.31-0.33-3.5-0.5-3.5-0.5-3.5-0.5-4.5-1.5-1.8275-0.32634-3.6625-0.61052-5.5-0.875-3.9128-0.61122-7.4811-1.3593-11.188-2.75-4.5565-1.6607-8.4898-1.6047-13.312-1.375z" fill="#FD9D1A"/>
<path transform="translate(862.22 1521.9)" d="m0 0c1.2742-0.0019336 1.2742-0.0019336 2.5742-0.0039062 0.89332 0.0038672 1.7866 0.0077344 2.707 0.011719 0.89332-0.0038672 1.7866-0.0077344 2.707-0.011719 0.84949 0.0012891 1.699 0.0025781 2.5742 0.0039062 0.78439 0.0011279 1.5688 0.0022559 2.377 0.003418 1.8418 0.12939 1.8418 0.12939 2.8418 1.1294 1.8489 0.23364 3.7049 0.41304 5.5625 0.5625 1.0119 0.083789 2.0238 0.16758 3.0664 0.25391 1.1737 0.090879 1.1737 0.090879 2.3711 0.18359v2l11 1v2l2.3125 0.4375c2.6875 0.5625 2.6875 0.5625 5.6875 1.5625v2c2.97 0.495 2.97 0.495 6 1v2h3v2h2v2c0.99 0.33 1.98 0.66 3 1v2c0.59812 0.0825 1.1962 0.165 1.8125 0.25 2.8168 0.96577 3.6655 2.2387 5.1875 4.75v2h2v2l1.9375 0.6875c2.0625 1.3125 2.0625 1.3125 2.8125 3.9375l0.25 2.375h2v3h2c3 6.5 3 6.5 3 11h2v5h2c1.1532 6.3424 1.0951 12.567 1 19h2c0.026854 2.3124 0.046328 4.625 0.0625 6.9375 0.011602 1.2878 0.023203 2.5755 0.035156 3.9023-0.097656 3.1602-0.097656 3.1602-1.0977 4.1602-0.22513 1.338-0.39361 2.6857-0.53516 4.0352-0.13052 1.2133-0.13052 1.2133-0.26367 2.4512-0.087012 0.85014-0.17402 1.7003-0.26367 2.5762-0.090879 0.854-0.18176 1.708-0.27539 2.5879-0.22462 2.1161-0.44386 4.2328-0.66211 6.3496h-2v5h-2l-0.375 3.1875c-0.53641 3.2721-1.2638 5.8179-2.625 8.8125h-2v2h-2l-1 5h-2c-0.26812 0.92812-0.53625 1.8562-0.8125 2.8125-1.0973 2.9453-1.7211 4.3377-4.1875 6.1875h-2v2h-2v2l-4 1v2h-3v2h-2v2c-2.97 0.99-5.94 1.98-9 3v2h-5v2c-5.8974 2.2934-10.666 3.3455-17 3v2h-33v-2h-9v-2l-3.4375-0.25c-4.9696-0.59564-9.1172-2.5376-13.562-4.75v-2l-5-1v-2h-2v-2l-1.8125-0.375c-2.1875-0.625-2.1875-0.625-5.1875-2.625v-2h-2v-2h-2c-1.625-1.375-1.625-1.375-3-3v-2h-2c-0.53625-0.94875-1.0725-1.8975-1.625-2.875-1.2793-2.2595-2.5955-4.4763-3.9766-6.6758-0.54398-0.87012-1.088-1.7402-1.6484-2.6367-0.52078-0.81855-1.0416-1.6371-1.5781-2.4805-1.1719-2.332-1.1719-2.332-1.1719-6.332h-2c-0.65272-2.3316-1.2973-4.665-1.9375-7-0.1824-0.6484-0.3648-1.2968-0.55273-1.9648-4.332-15.91-5.2648-38.137 1.5918-53.504 0.29648-0.50531 0.59297-1.0106 0.89844-1.5312h2l-0.1875-2.625c0.21206-3.817 1.3079-6.0858 3.1875-9.375h2v-2h2l0.25-2.375 0.75-2.625c1.3165-0.69938 2.6502-1.3673 4-2 0.36548-1.3249 0.69376-2.6602 1-4 2.8757-4.3135 6.5347-7.4154 11-10h2v-2h3v-2c1.98-0.33 3.96-0.66 6-1v-2h3v-2h5v-2l11-1v-2c0.78246-0.060586 1.5649-0.12117 2.3711-0.18359 1.5179-0.12568 1.5179-0.12568 3.0664-0.25391 1.0093-0.081211 2.0187-0.16242 3.0586-0.24609 3.0485-0.38522 4.4346-1.4445 7.7227-1.4492zm-6.2188 45.133v2l-1.8125 0.4375c-1.749 0.44974-3.4743 0.99142-5.1875 1.5625v2l-4 1-1 4h-2v2c-0.99 0.33-1.98 0.66-3 1v4h-2v3h-2c-0.7745 3.4334-1.1282 6.6078-1.1328 10.125-0.0012891 0.95391-0.0025781 1.9078-0.0039062 2.8906 0.0038672 0.98484 0.0077344 1.9697 0.011719 2.9844-0.0038672 0.98484-0.0077344 1.9697-0.011719 2.9844 0.0012891 0.95391 0.0025781 1.9078 0.0039062 2.8906 0.0011279 0.86367 0.0022559 1.7273 0.003418 2.6172 0.13351 2.5876 0.5599 4.9833 1.1294 7.5078h2l0.375 1.6875c0.68477 2.5336 1.6163 4.8917 2.625 7.3125h2v3h2v2c2.5615 2.2965 3.4797 3 7 3v2h3v2c2.8703 0.81833 5.4251 1.1283 8.4062 1.1328 0.82629 0.0012891 1.6526 0.0025781 2.5039 0.0039062 0.85465-0.0038672 1.7093-0.0077344 2.5898-0.011719 0.85465 0.0038672 1.7093 0.0077344 2.5898 0.011719 1.2394-0.0019336 1.2394-0.0019336 2.5039-0.0039062 1.1244-0.0016919 1.1244-0.0016919 2.2715-0.003418 2.1582-0.13082 4.0595-0.53773 6.1348-1.1294v-2h3v-2l2.375-0.9375c2.5483-0.99125 2.5483-0.99125 4.625-2.0625v-2h2c2.4316-3.3668 3-4.7335 3-9h2v-3h2c0.91024-5.4181 1.1523-10.636 1.125-16.125 0.0038672-0.78504 0.0077344-1.5701 0.011719-2.3789-0.0066862-3.9649-0.15748-7.6258-1.1367-11.496h-2v-5h-2l-1-5h-2v-2h-2c-0.26812-0.63938-0.53625-1.2788-0.8125-1.9375-1.0742-2.3938-1.0742-2.3938-4.1875-3.0625v-2c-2.6474-1.4606-3.8945-2-7-2v-2c-7.8061-1.3287-15.194-1.3287-23 0z"/>
<path transform="translate(1569,1522)" d="m0 0h20v2h11v2l2.9375-0.1875c4.6781-0.028759 8.7373 1.5398 13.062 3.1875v2h3v2c0.92812 0.12375 1.8562 0.2475 2.8125 0.375 3.1875 0.625 3.1875 0.625 6.1875 2.625v2l2.1875 0.6875c3.3982 1.5858 5.2648 3.5737 7.8125 6.3125l2.8125 2.6875c2.1875 2.3125 2.1875 2.3125 2.1875 4.3125h2v3h2v2h2l1 7h2v3h2v4h2l1 10h2c0.22786 2.0508 0.45573 4.1016 0.68359 6.1523 0.13527 1.8591 0.13527 1.8591 1.3164 2.8477 0.10003 2.1335 0.13081 4.2704 0.13281 6.4062 0.0012891 1.3007 0.0025781 2.6013 0.0039062 3.9414-0.0020947 0.68079-0.0041894 1.3616-0.0063477 2.063-0.0053487 2.0806-5.429e-5 4.1611 0.0063477 6.2417-0.0019336 1.951-0.0019336 1.951-0.0039062 3.9414-0.0011279 1.2033-0.0022559 2.4067-0.003418 3.6465-0.12939 2.7598-0.12939 2.7598-1.1294 3.7598l-0.4375 3.125c-0.96216 6.6282-3.1633 12.659-5.5625 18.875h-2v4h-2l-1 5h-2v3h-2v2h-2l-1 4-4 1-1 4h-2v2l-4 1v2h-2v2h-3v2l-5 1v2h-4v2c-4.9298 2.0399-8.5796 3.4065-14 3v2h-7v2h-34v-2h-7v-2l-3.0625 0.1875c-4.4925-0.21393-6.9484-1.2336-10.938-3.1875v-2h-4v-2l-5-1v-2h-3v-2h-2v-2l-2.0625-0.5c-4.2886-2.1899-7.1326-5.62-9.9375-9.5v-2h-2v-2h-2v-3h-2l-1-5h-2v-4h-2c-2.0399-4.9298-3.4065-8.5796-3-14h-2v-7h-2v-33h2v-8h2c0.073477-0.88752 0.073477-0.88752 0.14844-1.793 0.41613-4.3981 0.90122-8.1763 2.8516-12.207h2v-4h2l1-5h2l2-5h2l0.25-1.8125c0.96577-2.8168 2.2387-3.6655 4.75-5.1875h2l1-4 4-1v-2h3v-2c5.625-3 5.625-3 9-3v-2h4v-2c5.36-2.2568 9.1978-3.3626 15-3v-2h11v-2zm-2 45v2h-4v2c-0.76312 0.26812-1.5262 0.53625-2.3125 0.8125-2.5774 1.1388-3.957 2.0017-5.6875 4.1875v2h-2l-2 5h-2c-2.1058 5.5276-3.3785 10.07-3 16h-2c-0.026882 1.6457-0.046341 3.2916-0.0625 4.9375-0.011602 0.91652-0.023203 1.833-0.035156 2.7773-0.16183 2.2511-0.16183 2.2511 1.0977 3.2852l0.375 3.0625c0.69233 4.3616 1.9772 7.8538 3.625 11.938h2v3h2v2h2l1 4 4 1v2h2v2h3v2c4.6758 1.1878 9.2114 1.1483 14 1.125 0.79406 0.0038672 1.5881 0.0077344 2.4062 0.011719 3.9967-0.0066612 7.6932-0.14586 11.594-1.1367v-2c0.63938-0.10312 1.2788-0.20625 1.9375-0.3125l2.0625-0.6875 1-3 1.875-0.4375c2.8636-0.75801 3.6201-2.0795 5.125-4.5625v-2h2v-3h2c2.2934-5.8974 3.3455-10.666 3-17h2c0.042417-2.3329 0.040929-4.667 0-7l-1-1-0.3125-3.5c-0.62709-5.6952-3.1565-10.438-5.6875-15.5h-2v-3h-2l-0.1875-1.8125c-1.148-3.0909-2.918-3.7755-5.8125-5.1875h-2v-2h-4v-2c-8.0709-1.4036-15.929-1.4036-24 0z"/>
<path transform="translate(516.86 1523.9)" d="m0 0c1.1861 0.0078552 1.1861 0.0078552 2.3962 0.015869 1.281 0.004834 1.281 0.004834 2.5879 0.0097656 1.3467 0.012568 1.3467 0.012568 2.7207 0.025391 0.9017 0.0045117 1.8034 0.0090234 2.7324 0.013672 2.2351 0.011826 4.4701 0.028306 6.7051 0.048828v2c0.92619-0.052207 0.92619-0.052207 1.8711-0.10547 6.3143-0.20183 11.283 0.73337 17.129 3.1055v2l1.6875 0.375c4.7167 1.2748 7.731 2.2771 10.312 6.625v2c0.59812 0.061875 1.1962 0.12375 1.8125 0.1875 3.0909 1.148 3.7755 2.918 5.1875 5.8125v2h2v4h2c0.74553 2.1919 1.4812 4.3862 2.2031 6.5859 0.61878 1.8745 1.2649 3.7401 1.9219 5.6016 1.1362 4.9505 1.3677 9.8338 1.6289 14.898-0.07872 2.8043-0.07872 2.8043 1.2461 3.9141 0.10063 3.0081 0.13615 5.9934 0.12939 9.002 0.0026285 1.417 0.0026285 1.417 0.00531 2.8625 0.0044202 3.1389 0.0014799 6.2778-0.0018921 9.4168 6.7299e-4 2.1709 0.001643 4.3419 0.0028992 6.5128 0.0014772 4.5564-6.783e-4 9.1129-0.0053406 13.669-0.0056973 5.8549-0.0024184 11.71 0.0035725 17.565 0.003605 4.4848 0.0024673 8.9696-1.2779e-4 13.454-6.6944e-4 2.1595 1.5973e-4 4.319 0.0024796 6.4784 0.0025255 3.0124-0.0013127 6.0248-0.0069008 9.0372 0.0020242 0.90186 0.0040485 1.8037 0.006134 2.7329-0.021266 6.1548-0.021266 6.1548-1.1355 7.2691-1.5655 0.093267-3.1351 0.11746-4.7034 0.11353-1.001-7.553e-5 -2.0019-1.5106e-4 -3.0332-2.2888e-4 -1.0885-0.0051613-2.1771-0.010323-3.2986-0.01564-1.1084-0.001415-2.2168-0.0028299-3.3587-0.0042877-3.5562-0.0056182-7.1124-0.018174-10.669-0.030869-2.4043-0.0050126-4.8086-0.009576-7.2129-0.013672-5.9082-0.011053-11.816-0.027809-17.725-0.048828-0.0054684-1.7741-0.0054684-1.7741-0.011047-3.584-0.037003-11.167-0.094834-22.334-0.17286-33.5-0.039444-5.7404-0.071648-11.481-0.087093-17.221-0.015187-5.5439-0.049668-11.087-0.097313-16.631-0.014793-2.111-0.022731-4.222-0.023575-6.333-0.0023776-2.9658-0.029522-5.9305-0.062218-8.8962 0.0050304-0.86531 0.010061-1.7306 0.015244-2.6222-0.093067-5.4861-1.2232-9.4924-3.7053-14.394-0.85581-1.8183-0.85581-1.8183-0.85581-3.8183-2.3321-1.2063-4.4964-2.1655-7-3v-2h-5v-2c-1.6463 0.14043-3.292 0.28749-4.9375 0.4375-0.91652 0.081211-1.833 0.16242-2.7773 0.24609-2.2468 0.076856-2.2468 0.076856-3.2852 1.3164-1.6662 0.040638-3.3339 0.042721-5 0v2c-5.625 3-5.625 3-9 3-0.30938 0.78375-0.61875 1.5675-0.9375 2.375-1.0625 2.625-1.0625 2.625-2.0625 4.625h-2v4h-2l-1 96h-49v-154h47v14l3-3h2v-2h2v-2c6.625-3 6.625-3 10-3v-2h4v-2c1.3903-0.19916 1.3903-0.19916 2.8086-0.40234 1.1975-0.1766 2.3951-0.3532 3.6289-0.53516 1.195-0.17402 2.3899-0.34805 3.6211-0.52734 2.6154-0.47585 3.3969-1.5019 5.7991-1.6487z"/>
<path transform="translate(694,1524)" d="m0 0h21v2c0.59168-0.011602 1.1834-0.023203 1.793-0.035156 4.2093-0.048068 8.0993-0.024913 12.207 1.0352v2l2.375 0.4375c2.625 0.5625 2.625 0.5625 4.625 1.5625v2l5 1v2l1.9375 0.8125c2.0625 1.1875 2.0625 1.1875 3.0625 4.1875h2v2h2v2h2l1 5h2v4h2v5h2c0.13277 1.0712 0.26555 2.1424 0.40234 3.2461 0.17816 1.3972 0.35656 2.7943 0.53516 4.1914 0.087012 0.70705 0.17402 1.4141 0.26367 2.1426 0.18099 3.5081 0.18099 3.5081 1.7988 6.4199 0.095392 1.3788 0.12189 2.7624 0.12025 4.1444 0.002062 1.3399 0.002062 1.3399 0.0041656 2.7069-0.0035953 0.98758-0.0071906 1.9752-0.010895 2.9927 1.4603e-4 1.034 2.9205e-4 2.068 4.4251e-4 3.1334-6.9963e-4 3.4359-0.0084943 6.8718-0.016312 10.308-0.001864 2.3751-0.003288 4.7502-0.0042877 7.1254-0.0038266 6.2653-0.013658 12.53-0.024704 18.796-0.012005 7.5098-0.016616 15.02-0.022453 22.529-0.0097124 11.421-0.028868 22.843-0.046211 34.264h-50v-98h-2v-4h-2v-3h-2c-1.625-1.375-1.625-1.375-3-3v-2h-3v-2c-4.9426-1.1533-9.9566-1.5397-15-2v2h-7v2h-3v2l-4 1-1 4h-2v2h-2c-0.14438 0.80438-0.28875 1.6088-0.4375 2.4375-0.5625 2.5625-0.5625 2.5625-1.5625 3.5625-0.36761 2.3282-0.70242 4.6618-1 7h-2v88h-49v-154h47l1 7 1 1c0.040638 1.6662 0.042721 3.3339 0 5h2v-2h2v-2h3v-2l5-1v-2h4v-2c5.8974-2.2934 10.666-3.3455 17-3v-2z"/>
<path transform="translate(1769.9 1523.9)" d="m0 0c0.83265 0.0052368 1.6653 0.010474 2.5232 0.015869 0.89912 0.0032227 1.7982 0.0064453 2.7246 0.0097656 1.4183 0.012568 1.4183 0.012568 2.8652 0.025391 1.4241 0.0067676 1.4241 0.0067676 2.877 0.013672 2.3536 0.011827 4.707 0.028308 7.0605 0.048828v2c0.59168-0.011602 1.1834-0.023203 1.793-0.035156 4.2093-0.048068 8.0993-0.024913 12.207 1.0352v2h5v2l2.125 0.8125c3.081 1.2726 6.0013 2.4894 8.875 4.1875 0.625 2.0625 0.625 2.0625 1 4l1.875 0.9375c2.8901 1.4451 3.7288 3.2003 5.125 6.0625v3h2v3h2c2.4794 6.2427 3.3199 11.283 3 18h2v110h-49l-1-100h-2v-3h-2c-1.6873-1.9826-3.3537-3.9832-5-6l-2-1v-2h-5v-2h-11v2h-5v2c-1.0931 0.4125-2.1862 0.825-3.3125 1.25-3.2447 1.3672-4.7377 2.7741-6.6875 5.75h-2v2h-2l-0.4375 3.4375c-0.5625 3.5625-0.5625 3.5625-1.5625 4.5625-0.20604 1.3278-0.3663 2.663-0.5 4-0.38889 3.8889-0.38889 3.8889-1.5 5-0.12507 2.616-0.18605 5.2069-0.20532 7.8245-0.0098996 0.81945-0.019799 1.6389-0.029999 2.4832-0.03171 2.7216-0.05641 5.4433-0.081085 8.165-0.020561 1.8819-0.041558 3.7637-0.062973 5.6456-0.055305 4.9632-0.10468 9.9264-0.15285 14.89-0.058965 5.9497-0.12524 11.899-0.1903 17.849-0.098115 9.0477-0.1869 18.095-0.27747 27.143h-49c-0.022546-19.931-0.040978-39.863-0.051812-59.794-0.0051633-9.2539-0.012207-18.508-0.023627-27.762-0.0099458-8.0627-0.016414-16.125-0.018649-24.188-0.0013073-4.2718-0.0043942-8.5436-0.011642-12.815-0.0067586-4.0161-0.0088872-8.0321-0.0073776-12.048-2.764e-4 -1.4783-0.0022824-2.9566-0.0060978-4.4349-0.0049347-2.0096-0.0031927-4.0193-0.001049-6.0289-9.2179e-4 -1.1274-0.0018436-2.2547-0.0027933-3.4162 0.12305-2.5125 0.12305-2.5125 1.123-3.5125 1.4319-0.10332 2.8688-0.1385 4.3044-0.14526 0.91442-0.0063798 1.8288-0.01276 2.771-0.019333 0.99476-0.0011128 1.9895-0.0022256 3.0144-0.0033722 1.0149-0.0033284 2.0297-0.0066568 3.0753-0.010086 2.1512-0.0050737 4.3025-0.0074082 6.4537-0.0072479 3.301-0.0021856 6.6017-0.020334 9.9026-0.039307 2.0853-0.0029339 4.1706-0.0049187 6.2559-0.0058594 0.99273-0.0071855 1.9855-0.014371 3.0083-0.021774 0.91758 0.0030766 1.8352 0.0061533 2.7805 0.0093231 0.80973-0.001425 1.6195-0.00285 2.4537-0.0043182 1.9801 0.24724 1.9801 0.24724 3.9801 2.2472 0.19531 2.6016 0.19531 2.6016 0.125 5.625-0.018047 1.0029-0.036094 2.0058-0.054688 3.0391-0.023203 0.77086-0.046406 1.5417-0.070312 2.3359h2v-2h3v-2h2v-2l5-1v-2h4v-2c5.7102-2.1017 10.956-3.3524 17-4 1-1 1-1 2.9495-1.1135z"/>
<path transform="translate(950,1527)" d="m0 0c7.6538-0.050578 15.308-0.085682 22.961-0.10986 2.6055-0.010077 5.211-0.023739 7.8164-0.041016 3.7381-0.024172 7.4761-0.035587 11.214-0.044434 1.1709-0.010323 2.3417-0.020645 3.5481-0.031281 1.081-1.5106e-4 2.1619-3.0212e-4 3.2757-4.5776e-4 0.95486-0.0044412 1.9097-0.0088824 2.8935-0.013458 2.2906 0.24051 2.2906 0.24051 4.2906 2.2405v4h2l1 10h2v5h2c3.4442 9.41 3.4442 9.41 3 14h2v5h2c3.4442 9.41 3.4442 9.41 3 14h2v6h2c3.4442 9.41 3.4442 9.41 3 14h2v5h2v5h2l1 9h2v-2h2c0.18562-0.95906 0.18562-0.95906 0.375-1.9375 0.82298-4.0326 1.7239-8.0467 2.625-12.062h2v-5h2v-5h2c0.073477-0.9784 0.073477-0.9784 0.14844-1.9766 0.42398-4.9562 1.0082-9.3536 2.8516-14.023h2l0.375-3.0625c0.60585-3.8169 1.4969-7.2525 2.625-10.938h2v-5h2c0.073477-0.85271 0.073477-0.85271 0.14844-1.7227 0.48299-4.9882 1.3279-9.5033 2.8516-14.277h2v-5h2l1-9h2v-2h52c0 7.875 0 7.875-1 11h-2v5h-2v3h-2l-0.375 3.6875c-0.41391 3.3773-1.1707 6.2101-2.625 9.3125h-2v3h-2l-1 9h-2v3h-2c-0.16242 1.5256-0.16242 1.5256-0.32812 3.082-0.67555 3.9394-1.7845 6.9721-3.4219 10.605-0.53367 1.2027-1.0673 2.4054-1.6172 3.6445-0.27167 0.60667-0.54334 1.2133-0.82324 1.8384-1.2752 2.882-2.4786 5.7931-3.6846 8.7046-0.40992 0.98742-0.81984 1.9748-1.2422 2.9922-0.43699 1.0557-0.43699 1.0557-0.88281 2.1328h-2l-0.375 3.125c-0.5639 3.4962-1.4118 6.559-2.625 9.875h-2v3h-2l-0.375 3.75c-0.38246 3.1262-0.9305 5.5388-2.625 8.25h-2v5h-2l-0.25 2.9375c-0.64991 4.7337-2.6731 8.8023-4.75 13.062h-2l-0.375 3.75c-0.38246 3.1262-0.9305 5.5388-2.625 8.25h-2v4h-2l-0.4375 3.9375c-0.4375 3.9375-0.4375 3.9375-1.5625 5.0625-1.5042 0.093119-3.0127 0.11746-4.5198 0.11353-1.4414-1.133e-4 -1.4414-1.133e-4 -2.9119-2.2888e-4 -1.0448-0.0051613-2.0896-0.010323-3.166-0.01564-1.596-0.0021224-1.596-0.0021224-3.2242-0.0042877-3.4136-0.0056179-6.8271-0.018173-10.241-0.030869-2.3079-0.0050127-4.6159-0.009576-6.9238-0.013672-5.6712-0.011053-11.342-0.027808-17.014-0.048828v-4h-2c-0.5056-1.4355-1.0043-2.8735-1.5-4.3125-0.27844-0.80051-0.55688-1.601-0.84375-2.4258-0.65625-2.2617-0.65625-2.2617-0.65625-5.2617h-2v-5h-2c-2.4595-5.2543-3.903-10.309-5-16h-2l-1-9h-2v-3h-2c-0.27715-0.85465-0.5543-1.7093-0.83984-2.5898-0.36223-1.1047-0.72445-2.2095-1.0977-3.3477-0.35965-1.1021-0.7193-2.2043-1.0898-3.3398-0.71122-2.6039-0.71122-2.6039-1.9727-3.7227-0.040638-1.6662-0.042721-3.3339 0-5h-2v-3h-2l-1-9h-2v-3h-2c-0.50758-1.414-1.0057-2.8313-1.5-4.25-0.41766-1.1834-0.41766-1.1834-0.84375-2.3906-0.65625-2.3594-0.65625-2.3594-0.65625-6.3594h-2l-1.375-3.75c-0.83635-2.2554-1.6635-4.3209-2.8125-6.4375-1.0501-2.3424-0.95338-4.2766-0.8125-6.8125h-2c-0.84212-1.9128-1.6734-3.8304-2.5-5.75l-1.4062-3.2344c-1.0938-3.0156-1.0938-3.0156-1.0938-7.0156h-2l-1.375-3.75c-0.83635-2.2554-1.6635-4.3209-2.8125-6.4375-1.0501-2.3424-0.95338-4.2766-0.8125-6.8125h-2v-4h-2v-5z"/>
<path transform="translate(1166,1527)" d="m0 0h47v4h2c3.4286 7.2857 3.4286 7.2857 3 12h2v4h2c0.50834 1.2466 1.0063 2.4975 1.5 3.75l0.84375 2.1094c0.65625 2.1406 0.65625 2.1406 0.65625 6.1406h2v5h2c3.4286 7.2857 3.4286 7.2857 3 12h2v4h2c0.50834 1.2466 1.0063 2.4975 1.5 3.75l0.84375 2.1094c0.65625 2.1406 0.65625 2.1406 0.65625 6.1406h2v5h2v4h2l1 8h2v4h2c0.50834 1.2466 1.0063 2.4975 1.5 3.75 0.41766 1.0441 0.41766 1.0441 0.84375 2.1094 0.65625 2.1406 0.65625 2.1406 0.65625 6.1406h2v5h2c3.4286 7.2857 3.4286 7.2857 3 12h2v4h2c0.5056 1.4355 1.0043 2.8735 1.5 4.3125 0.41766 1.2008 0.41766 1.2008 0.84375 2.4258 0.65625 2.2617 0.65625 2.2617 0.65625 5.2617h2c0.5056 1.4355 1.0043 2.8735 1.5 4.3125 0.41766 1.2008 0.41766 1.2008 0.84375 2.4258 0.65625 2.2617 0.65625 2.2617 0.65625 5.2617h2v5h2v6h-54v-2h-2c-0.50471-1.7695-1.0036-3.5407-1.5-5.3125-0.27844-0.98613-0.55688-1.9723-0.84375-2.9883-0.65625-2.6992-0.65625-2.6992-0.65625-5.6992h-2c-0.50806-1.7268-1.0061-3.4566-1.5-5.1875-0.27844-0.96293-0.55688-1.9259-0.84375-2.918-0.62303-2.748-0.77928-5.0905-0.65625-7.8945h-2v-4h-2v-5h-2l-1-10h-2c-0.84334-2.2258-1.6748-4.455-2.5-6.6875-0.35771-0.93876-0.35771-0.93876-0.72266-1.8965-1.3186-3.5979-2.0706-6.5812-1.7773-10.416h-2v-5h-2c-3.4442-9.41-3.4442-9.41-3-14h-2v-5h-2v5h-2l-1 10h-2v5h-2v6h-2l-0.375 3.625c-0.44825 3.651-1.3295 6.9202-2.625 10.375h-2v5h-2l-1 10h-2v5h-2v6h-2l-0.25 3.875c-0.49472 4.509-1.7941 8.2408-3.6172 12.375-1.5814 3.8389-2.8199 7.8112-4.1328 11.75h-54v-5h2c0.1057-1.0222 0.21141-2.0445 0.32031-3.0977 0.68414-3.9279 1.8019-6.7776 3.5547-10.34 2.3049-4.7983 4.3542-9.5452 6.125-14.562h2l0.25-2.9375c0.64991-4.7337 2.6731-8.8023 4.75-13.062h2l0.375-3.75c0.38246-3.1262 0.9305-5.5388 2.625-8.25h2v-5h2l0.25-2.9375c0.64991-4.7337 2.6731-8.8023 4.75-13.062h2l0.375-3.1875c0.53641-3.2721 1.2638-5.8179 2.625-8.8125h2v-4h2l0.375-3.75c0.38246-3.1262 0.9305-5.5388 2.625-8.25h2v-5h2l1-7h2v-5h2v-4h2l0.375-3.75c0.38246-3.1262 0.9305-5.5388 2.625-8.25h2l0.375-2.6875c0.625-3.3125 0.625-3.3125 2.625-8.3125z"/>
<path transform="translate(1299,1482)" d="m0 0h48v45h39v40h-39c0.14874 11.173 0.14874 11.173 0.30664 22.346 0.066395 4.5541 0.1317 9.1082 0.19067 13.662 0.047593 3.6699 0.099934 7.3398 0.15563 11.01 0.020447 1.4031 0.039156 2.8062 0.056133 4.2093 0.023993 1.9588 0.054628 3.9176 0.085604 5.8763 0.023316 1.6755 0.023316 1.6755 0.047104 3.3848-0.12359 2.4506-0.12359 2.4506 1.1582 3.512 0.040808 1.9996 0.042544 4.0005 0 6h2l1.3125 2.3125c2.0389 3.2471 3.1406 4.2096 6.6875 5.6875 3.6593 0.53161 7.3083 0.8125 11 1v-2h5v-2c1.98-0.33 3.96-0.66 6-1v-2c5.75-1.125 5.75-1.125 8 0v3h2c3 5.75 3 5.75 3 8h2v3h2v3h2c0.45375 0.96938 0.9075 1.9388 1.375 2.9375 1.2829 3.1333 1.2829 3.1333 3.625 4.0625v7h-2v2h-2v2l-5 1v2h-3v2h-4v2c-2.97 0.33-5.94 0.66-9 1v2h-7v2c-27.954 2.103-27.954 2.103-41-2v-2c-1.9857-0.19531-3.9714-0.39062-5.957-0.58594-2.043-0.41406-2.043-0.41406-5.043-2.4141v-2h-3v-2l-4-1-1-4h-2v-2h-2c-1.1828-2.0337-2.3458-4.0751-3.5-6.125-0.64969-1.137-1.2994-2.2739-1.9688-3.4453-1.5636-3.5022-1.8528-5.6514-1.5312-9.4297h-2c-0.80762-4.9483-1.122-9.6493-1.1135-14.679-1.4603e-4 -0.73254-2.9205e-4 -1.4651-4.4251e-4 -2.2198 6.9104e-4 -2.3969 0.0084451-4.7937 0.016312-7.1906 0.0018671-1.6715 0.0032896-3.343 0.0042877-5.0145 0.0038025-4.3812 0.013613-8.7623 0.024704-13.143 0.010263-4.4779 0.014804-8.9559 0.019836-13.434 0.010697-8.7728 0.028276-17.546 0.048828-26.318h-25v-40h25v-45z"/>
<path transform="translate(1185.3 1359.9)" d="m0 0c1.2543 0.018047 2.5085 0.036094 3.8008 0.054688 1.4289 0.034805 1.4289 0.034805 2.8867 0.070312l0.4375 3.4375c0.17421 3.3703 0.17421 3.3703 1.5625 4.5625 0.26999 3.2099 0.44611 6.4123 0.60547 9.6289-0.10841 3.4805-0.10841 3.4805 1.3945 6.3711 0.12714 2.6167 0.18521 5.1953 0.1875 7.8125 0.012246 0.7251 0.024492 1.4502 0.037109 2.1973 0.011369 4.1422-0.32529 6.1916-2.2246 9.9902h22l-1-3c-0.10855-2.5393-0.16402-5.0503-0.16797-7.5898-0.0033284-0.74093-0.0066568-1.4819-0.010086-2.2453-0.0050587-1.5659-0.0074086-3.1319-0.0072479-4.6979-0.002186-2.3922-0.020351-4.7839-0.039307-7.176-0.0029343-1.5228-0.0049188-3.0456-0.0058594-4.5684-0.0071855-0.71365-0.014371-1.4273-0.021774-2.1626 0.016913-3.6871 0.21714-6.427 2.2522-9.5601 2.6459-0.026847 5.2915-0.046764 7.9375-0.0625 1.1321-0.012568 1.1321-0.012568 2.2871-0.025391 1.9253-0.0086338 3.8507 0.035647 5.7754 0.087891 1 1 1 1 1.1135 4.7854-1.5917e-4 1.6874-0.0058562 3.3749-0.015869 5.0623-0.0021224 1.3296-0.0021224 1.3296-0.0042877 2.6861-0.0056164 2.8429-0.018172 5.6858-0.030869 8.5287-0.0050129 1.9225-0.0095762 3.8451-0.013672 5.7676-0.010202 4.7234-0.029774 9.4466-0.048828 14.17h18v-6h-2c-0.33609-8.0536-0.051729-14.498 3-22h2v-4h2v-2c2.5615-2.2965 3.4797-3 7-3v-2c9.009-3.9746 19.438-3.9514 29-2 2.4375 1.0625 2.4375 1.0625 4 2v2h3v2l4 2v3h2c2.9425 14.712 1 29.996 1 45h-147v-2c-2.97-0.495-2.97-0.495-6-1v-2h-2l-1 3h-4v2h-6v2c-5.4389 0.21756-9.8708 0.10428-15-2v-2h-10v2h-23v4h-2l-0.375 3.75c-0.38246 3.1262-0.9305 5.5388-2.625 8.25h-2v2c-1.25 1.625-1.25 1.625-3 3h-4v2c-5.5994 3.3596-12.149 3.1381-18.5 3.125-1.8717 0.0038672-1.8717 0.0038672-3.7812 0.0078125-3.6717-0.13113-7.0987-0.54502-10.719-1.1328v-2h-3v-2h-4v-2c-0.99-0.33-1.98-0.66-3-1v-2h-2v-4h-2v-5h-2c-2.1186-26.922-2.1186-26.922 2-36h8v-2h11l-1 4.8125c-0.96252 5.7545-1.2233 11.368-1.25 17.188-0.0090234 0.82476-0.018047 1.6495-0.027344 2.4993 0.0058008 1.176 0.0058008 1.176 0.011719 2.3757 0.0022559 0.69867 0.0045117 1.3973 0.0068359 2.1172 0.30092 2.3347 1.1964 3.9231 2.2588 6.0078v3h2v2h3v2h11v-2c2.375-2.625 2.375-2.625 5-5h2l-0.0625-2.9375c0.0625-3.0625 0.0625-3.0625 1.0625-4.0625 0.12291-1.6564 0.17784-3.318 0.20532-4.9788 0.019945-1.061 0.03989-2.122 0.06044-3.2152 0.016712-1.1541 0.033425-2.3083 0.050644-3.4974 0.020781-1.175 0.041562-2.35 0.062973-3.5605 0.065622-3.7701 0.12444-7.5403 0.18312-11.311 0.043173-2.5488 0.086787-5.0977 0.13086-7.6465 0.10734-6.2636 0.20857-12.527 0.30664-18.791h17v41h19v-2h2v-7h2v-25h17v32h2v2h9c0.019819-1.0748 0.039639-2.1497 0.060059-3.2571 0.076054-3.9866 0.16477-7.9728 0.25732-11.959 0.038291-1.7255 0.073143-3.4511 0.10449-5.1768 0.045649-2.48 0.10364-4.9595 0.16406-7.4392 0.011551-0.77197 0.023102-1.5439 0.035004-2.3393 0.10427-3.7811 0.23252-5.6088 2.3791-8.8287 2.5943-0.27668 4.9126-0.37295 7.5-0.3125 0.68965-0.0032227 1.3793-0.0064453 2.0898-0.0097656 5.143 0.05514 5.143 0.05514 7.4102 2.3223 0.1751 2.6529 0.23155 5.1999 0.19531 7.8516-0.0028299 0.77403-0.0056598 1.5481-0.0085754 2.3456-0.01121 2.4761-0.036315 4.9519-0.061737 7.4279-0.010029 1.6771-0.019155 3.3542-0.027344 5.0312-0.022071 4.1147-0.056605 8.2292-0.097656 12.344h2v2h11v-28h-2v-11h-2v-3c4.219-2.049 7.6537-2.2121 12.312-2.125zm90.688 17.125v2h-4l-1 5h-2c-0.081507 2.0618-0.13942 4.1246-0.1875 6.1875-0.034805 1.1486-0.069609 2.2971-0.10547 3.4805 0.32174 3.6593 0.93828 5.5223 3.293 8.332h4v2h14v-18h-2c-0.14438-0.78375-0.28875-1.5675-0.4375-2.375-0.44049-2.5892-0.44049-2.5892-1.5625-4.625h-3v-2h-7z"/>
<path transform="translate(797,1366)" d="m0 0v38h21c-0.011602-2.8759-0.023203-5.7518-0.035156-8.7148-0.00779-2.7734-0.013867-5.5467-0.019775-8.3201-0.0050409-1.9333-0.011874-3.8665-0.020508-5.7998-0.012076-2.7726-0.017791-5.5451-0.022217-8.3176-0.0051613-0.86979-0.010323-1.7396-0.01564-2.6357-1.9534e-4 -2.071 0.051215-4.1419 0.1133-6.2119 1.8119-1.8119 4.2698-1.1323 6.6777-1.1367 0.74572 0.0038672 1.4914 0.0077344 2.2598 0.011719 0.74186-0.0038672 1.4837-0.0077344 2.248-0.011719 5.5612 0.010084 5.5612 0.010084 7.8145 1.1367v40l17-1-1-3c-0.50249-9.1415-0.72021-17.475 3-26h2v-2h2l1-3h2v-2c9.2074-5.0244 19.643-7.0601 30-4.0625 0.99 0.35062 1.98 0.70125 3 1.0625 1.3313 0.34136 2.6636 0.67926 4 1v2h3v2h2v3h2c1.4783 2.9566 1.0603 5.7423 1 9h2v38h-150v-2l-8-1v-2h-4c-2.4185-2.5048-3-3.4601-3-7h-2v-4h-2v-22h2v-4h2l1-5h2v-2l4-1v-2c1.2027-0.65629 2.4125-1.2995 3.625-1.9375 0.67289-0.35965 1.3458-0.7193 2.0391-1.0898 11.848-4.9334 27.852-2.279 39.336 2.0273zm-30 11v2h-3v2h-2v2h-2c-1.2362 5.0991-1.6748 9.9756 0 15h2v2h2v2h2v2h14v-25c-3.7437-1.8718-4.8401-2.24-8.75-2.125-1.1988 0.02707-1.1988 0.02707-2.4219 0.054688-0.90492 0.034805-0.90492 0.034805-1.8281 0.070312zm112 0v2h-4c-2.3402 2.2566-2.9651 3.4876-3.1875 6.75l0.1875 2.25h-2c-0.50112 5.6794 1.928 9.392 5 14h2v2h16v-16h-2l0.1875-2.25c-0.2199-3.2252-0.97002-4.4472-3.1875-6.75h-2v-2h-7z"/>
<path transform="translate(1431.4 1037.9)" d="m0 0c1.2307-0.0058008 1.2307-0.0058008 2.4863-0.011719 4.7974 0.0076575 9.3456 0.3345 14.076 1.1367v2h4v2h3v2c2.97 0.495 2.97 0.495 6 1l0.25 1.875c0.54278 2.2785 0.54278 2.2785 2.625 3.1875l2.125 0.9375c1.75 1.5 1.75 1.5 3 3v2h2v3h2v4h2c1.1578 3.4733 1.0687 6.3607 1 10h2v19h-2l0.1875 3.0625c-0.21393 4.4925-1.2336 6.9484-3.1875 10.938h-2v4c-1.375 1.75-1.375 1.75-3 3h-2v2h-2v2c-1.375 1.625-1.375 1.625-3 3h-2v2h-4v2c-3.465 0.495-3.465 0.495-7 1v2h-7v2h-19v-2h-7v-2c-3.465-0.495-3.465-0.495-7-1v-2h-3v-2h-2v-2h-3c-4-4.3429-4-4.3429-4-7-0.99-0.33-1.98-0.66-3-1v-4h-2v-3h-2c-2.9629-6.716-3.1819-13.215-3.1875-20.438-0.012246-0.82049-0.024492-1.641-0.037109-2.4863-0.012216-5.1023 0.58121-9.2437 2.2246-14.076l1-3h2v-4h2l1-5h2v-2c2.375-2.625 2.375-2.625 5-5h2v-2l5-1v-2h4v-2c6.0326-3.4803 12.682-3.1567 19.438-3.125zm-5.4375 22.125v2h-4v2l-5 1v2h-2c-2.2965 2.5615-3 3.4797-3 7h-2v4h-2v12h2l0.4375 1.8125c0.44974 1.749 0.99142 3.4743 1.5625 5.1875h2l1 3h2v2h2v2h3v2c3.379 1.0235 6.4786 1.1338 10 1.125 1.0312 0.0025781 2.0625 0.0051562 3.125 0.0078125 2.4716-0.11418 4.5193-0.41931 6.875-1.1328v-2h3v-2h2c1.6667-1.3333 1.6667-1.3333 3-3v-2h2v-4h2c1.7607-6.0507 1.6204-12.923 0-19h-2v-3h-2c-0.26812-0.59812-0.53625-1.1962-0.8125-1.8125-1.1974-2.2057-2.2323-3.6233-4.1875-5.1875h-3v-2c-3.7722-1.7516-6.6666-2.2249-10.812-2.125-0.97582 0.018047-1.9516 0.036094-2.957 0.054688-0.73605 0.023203-1.4721 0.046406-2.2305 0.070312z" fill="#FD9D1A"/>
<path transform="translate(1372,1366)" d="m0 0v38h21c-0.011602-2.8759-0.023203-5.7518-0.035156-8.7148-0.00779-2.7734-0.013867-5.5467-0.019775-8.3201-0.0050409-1.9333-0.011874-3.8665-0.020508-5.7998-0.012076-2.7726-0.017791-5.5451-0.022217-8.3176-0.0051613-0.86979-0.010323-1.7396-0.01564-2.6357-1.9534e-4 -2.071 0.051215-4.1419 0.1133-6.2119 1.8119-1.8119 4.2698-1.1323 6.6777-1.1367 0.74572 0.0038672 1.4914 0.0077344 2.2598 0.011719 0.74186-0.0038672 1.4837-0.0077344 2.248-0.011719 5.5612 0.010084 5.5612 0.010084 7.8145 1.1367v55h-40v7h-2v5h-2l-0.25 2.375c-0.75 2.625-0.75 2.625-2.8125 3.9375l-1.9375 0.6875v2h-2v2h-3v2l-9 1v2c-4.0568 0.049547-8.1134 0.085789-12.17 0.10986-1.3793 0.010039-2.7585 0.023673-4.1377 0.041016-1.9857 0.024339-3.9716 0.034554-5.9575 0.044434-1.791 0.01571-1.791 0.01571-3.6182 0.031738-2.9742-0.2167-4.6194-0.66519-7.1162-2.2271-0.042721-1.6661-0.040638-3.3338 0-5l1-1c0.23075-1.3475 0.41153-2.7038 0.5625-4.0625l0.4375-3.9375c2.1249-0.026936 4.25-0.046366 6.375-0.0625 1.1834-0.011602 2.3667-0.023203 3.5859-0.035156 3.0391 0.097656 3.0391 0.097656 5.0391 1.0977 5.5097 0.41323 10.655-0.81689 16-2v-2h2v-2h2l1-7h-19v-2l-8-1v-2h-4v-2h-2l-1-5h-2c-1.5925-3.5183-2.2426-6.227-2.1953-10.082 0.0064453-0.93135 0.012891-1.8627 0.019531-2.8223 0.016758-0.95971 0.033516-1.9194 0.050781-2.9082 0.0090234-0.97904 0.018047-1.9581 0.027344-2.9668 0.023484-2.4072 0.056328-4.8138 0.097656-7.2207h2v-4h2l1-5h2v-2l4-1v-2h2v-2c13.026-5.921 30.106-3.8354 43 1zm-30 11v2h-3v2h-2v2h-2v5h-2v7h2v3h2l3 6h14c0.080597-4.1254 0.14031-8.2492 0.1875-12.375 0.025137-1.1756 0.050273-2.3512 0.076172-3.5625 0.009668-1.1215 0.019336-2.243 0.029297-3.3984 0.01571-1.0369 0.031421-2.0738 0.047607-3.1421-0.11239-0.83225-0.22478-1.6645-0.34058-2.522-3.2038-2.1359-4.0194-2.2313-7.6875-2.125-1.2124 0.02707-1.2124 0.02707-2.4492 0.054688-0.61488 0.023203-1.2298 0.046406-1.8633 0.070312z"/>
<path transform="translate(1001,1336)" d="m0 0v17h-2v2c-2.9741 1.2392-5.8526 2.3006-9 3v2h-3v2c-5.625 3-5.625 3-9 3v4l2.375 0.9375c2.625 1.0625 2.625 1.0625 4.625 2.0625v2h2c2.2965 2.5615 3 3.4797 3 7h2c3.1732 6.1 4.6854 11.784 5.6055 18.594 0.1453 2.3515 0.1453 2.3515 1.3945 3.4062v16h-75v-82h17c1.3952 2.7903 1.1196 5.0723 1.1135 8.1938-7.553e-5 1.3012-1.5106e-4 2.6024-2.2888e-4 3.943-0.005107 1.4257-0.010323 2.8515-0.01564 4.2772-0.0018648 1.4545-0.0032884 2.9089-0.0042877 4.3634-0.0038205 3.8305-0.013647 7.6609-0.024704 11.491-0.012021 4.5947-0.016619 9.1894-0.022453 13.784-0.0097015 6.9824-0.028861 13.965-0.046211 20.947h38v-7h-2v-4h-2l-1-5h-2v-2h-2v-2c-0.99-0.33-1.98-0.66-3-1v-2h-4v-2h-5v-2h-5v-15h2v-2h3v-2l5-1v-2h4v-2h2v-2c5.75-3 5.75-3 8-3v-2h4l1-3h4v-2h3v-2h2v-2c3.2708-0.96912 5.3904-1 9-1z"/>
<path transform="translate(1043,1757)" d="m0 0c2.7919-0.053806 5.5828-0.093577 8.375-0.125 0.79406-0.016758 1.5881-0.033516 2.4062-0.050781 2.0737-0.017573 4.1476 0.07243 6.2188 0.17578 2.1861 2.1861 2.6826 3.5388 3.625 6.4375 0.39059 1.1737 0.39059 1.1737 0.78906 2.3711 0.58594 2.1914 0.58594 2.1914 0.58594 5.1914h2v6h2l1 8h2v4h2v5h2l1 9h2v5h2c0.5056 1.4355 1.0043 2.8735 1.5 4.3125 0.27844 0.80051 0.55688 1.601 0.84375 2.4258 0.65625 2.2617 0.65625 2.2617 0.65625 5.2617h2v5h2c0.64894 2.0615 1.294 4.1243 1.9375 6.1875 0.35965 1.1486 0.7193 2.2971 1.0898 3.4805 0.81022 2.7756 1.464 5.4889 1.9727 8.332h2l1 8h-19c-3.375-10.125-3.375-10.125-3-14h-2v-5h-2l-1-7h-35v4h-2v5h-2c-0.048984 0.59168-0.097969 1.1834-0.14844 1.793-0.41613 4.3981-0.90122 8.1763-2.8516 12.207h-2v3h-17c1.125-9 1.125-9 3-13h2l-0.25-1.9375c0.3085-3.7791 1.6401-6.4928 3.2773-9.8789 0.91644-2.0574 1.4995-3.9871 1.9727-6.1836h2v-5h2l0.25-3.375c0.62919-5.2401 2.6363-9.8274 4.75-14.625h2l1-8h2v-5h2v-4h2c0.048984-0.59168 0.097969-1.1834 0.14844-1.793 0.41613-4.3981 0.90122-8.1763 2.8516-12.207h2v-5h2v-4zm8 23c-0.84512 1.7234-1.6756 3.454-2.5 5.1875-0.46406 0.96293-0.92812 1.9259-1.4062 2.918-1.0897 2.8838-1.3165 4.8481-1.0938 7.8945h-2c-0.50693 1.5811-1.0053 3.165-1.5 4.75-0.27844 0.88172-0.55688 1.7634-0.84375 2.6719-0.8207 2.7808-0.8207 2.7808-0.65625 6.5781l-2 1h24l-1-7h-2v-5h-2l-0.375-2.5c-0.69602-3.8977-1.6338-7.6674-2.625-11.5h-2v-5h-2z"/>
<path transform="translate(1245.4 1756.9)" d="m0 0c1.0459 0.0022206 2.0918 0.0044412 3.1694 0.0067291 1.1811 7.553e-5 2.3623 1.5106e-4 3.5792 2.2888e-4 1.2854 0.0051613 2.5708 0.010323 3.8951 0.01564 1.9622 0.0021224 1.9622 0.0021224 3.9641 0.0042877 3.4836 0.0038244 6.9672 0.013654 10.451 0.024704 3.5524 0.010216 7.1049 0.014794 10.657 0.019836 6.9746 0.010736 13.949 0.028332 20.924 0.048828v14h-43v23h33v16h-33v26h47v15h-63v-2h-2c-0.023668-7.4353-0.041182-14.871-0.051812-22.306-0.0051143-3.4563-0.011989-6.9126-0.023627-10.369-0.049401-15.103 0.038907-30.189 0.51685-45.286 0.038989-1.2972 0.077978-2.5943 0.11815-3.9308 0.041658-1.1835 0.083316-2.3669 0.12624-3.5863 0.03626-1.0455 0.07252-2.0911 0.10988-3.1683 0.27499-3.1676 0.38306-3.3118 3.5645-3.4739z"/>
<path transform="translate(923.16 1753.9)" d="m0 0c1.9317 0.017402 1.9317 0.017402 3.9023 0.035156 1.2904 0.0090234 2.5807 0.018047 3.9102 0.027344 0.99902 0.011602 1.998 0.023203 3.0273 0.035156v2c0.90492-0.017402 0.90492-0.017402 1.8281-0.035156 1.1988-0.013535 1.1988-0.013535 2.4219-0.027344 0.78891-0.011602 1.5778-0.023203 2.3906-0.035156 2.2663 0.093803 4.1883 0.46525 6.3594 1.0977v2h3v2h4c1.75 1.375 1.75 1.375 3 3v2h2v2h2c1.625 1.1875 1.625 1.1875 3 3 0.1875 2.6875 0.1875 2.6875 0 5h-2c-0.22688 0.59812-0.45375 1.1962-0.6875 1.8125-1.7056 2.8427-3.3222 3.7967-6.3125 5.1875-2.625 0.5-2.625 0.5-5 0-1.0577-1.6306-2.0527-3.3028-3-5-1.6461-1.0336-3.3096-2.0406-5-3v-2h-3v-2h-24v2h-3v2l-4 1-1 4h-2v2h-2v3h-2l-1 7h-2v10h-2v3h2v10h2l0.9375 3.3125c0.64588 2.2416 1.3248 4.4744 2.0625 6.6875h2v2h2l1 4 4 1v2h3v2c0.96938-0.020625 1.9388-0.04125 2.9375-0.0625 3.0625 0.0625 3.0625 0.0625 4.0625 1.0625 1.8489 0.23364 3.7049 0.41304 5.5625 0.5625 1.5179 0.12568 1.5179 0.12568 3.0664 0.25391 0.78246 0.060586 1.5649 0.12117 2.3711 0.18359v-2h5v-2h4v-2l2.375-0.25c2.7413-0.45995 2.7413-0.45995 3.75-2.625 0.28875-0.70125 0.5775-1.4025 0.875-2.125 1.3125-1.8125 1.3125-1.8125 3-3 2.6875 0.3125 2.6875 0.3125 5 1v2h2v2h3v2h2v5h-2v3c-5.3488 5-5.3488 5-8 5v2h-4v2h-3v2c-3.6741 1.1757-7.1693 1.0737-11 1v2h-19v-2l-3 0.1875c-4.4689 0.027416-7.913-1.4667-12-3.1875v-2h-2v-2l-5-1v-2h-2v-2h-2v-2h-2l-1-5h-2v-3h-2c-2.839-8.4406-3.4609-16.195-3.375-25.062-0.011602-1.2021-0.023203-2.4041-0.035156-3.6426 0.023783-7.2656 0.83092-13.486 3.4102-20.295h2v-3h2l1-6 1.875-0.25c2.2785-0.54278 2.2785-0.54278 3.1875-2.625 0.30938-0.70125 0.61875-1.4025 0.9375-2.125 1.4375-1.75 1.4375-1.75 3-3h3v-2h2v-2c5.356-1.9311 10.355-3.2944 16-4 1-1 1-1 4.1602-1.0977z"/>
<path transform="translate(1137,1757)" d="m0 0h61v14h-44v25h33v15h-33v40h-17v-94z"/>
<path transform="translate(374.44 1464.6)" d="m0 0c0.82049-0.011602 1.641-0.023203 2.4863-0.035156 5.4344 0.026023 9.2298 0.94458 14.076 3.4102v2h2c1.625 1.25 1.625 1.25 3 3v4h2v3h2v19h-2v4h-2l-0.1875 1.6875c-1.1948 3.4004-3.0494 5.0406-5.8125 7.3125-3.3125 0.8125-3.3125 0.8125-6 1v2h-19v-2l-2.25-0.375c-2.6234-0.59623-4.5276-1.117-6.75-2.625-0.75-2.125-0.75-2.125-1-4h-2v-3h-2v-4h-2c-0.054017-2.9169-0.093681-5.8328-0.125-8.75-0.016758-0.825-0.033516-1.65-0.050781-2.5-0.0064453-0.79922-0.012891-1.5984-0.019531-2.4219-0.010474-0.73315-0.020947-1.4663-0.031738-2.2217 0.25928-2.4054 1.0348-4.019 2.2271-6.1064h2l0.1875-1.6875c1.4858-4.2288 4.6933-6.6075 8.3984-8.9414 4.4133-1.7724 8.145-1.8123 12.852-1.7461z"/>
<path transform="translate(1446.6 1464.8)" d="m0 0c1.106 0.0077344 1.106 0.0077344 2.2344 0.015625 3.823 0.05481 7.4239 0.32356 11.141 1.2344v2h2v2h2v2l4 1 1 6h2v5h2v12h-2v5h-2l-1 5h-2v2h-2v2h-2v2c-5.2672 3.2473-9.3995 3.3733-15.375 3.1875-0.83145-0.013535-1.6629-0.02707-2.5195-0.041016-2.0354-0.035094-4.0705-0.088892-6.1055-0.14648v-2c-2.31-0.33-4.62-0.66-7-1v-2h-2l-0.25-1.875c-0.56258-2.3094-0.56258-2.3094-2.8125-3.375-0.63938-0.2475-1.2788-0.495-1.9375-0.75v-3h-2c-0.86287-3.7254-1.1347-7.1788-1.125-11-0.0025781-1.0106-0.0051562-2.0212-0.0078125-3.0625 0.12455-2.7546 0.5117-5.2559 1.1328-7.9375h2v-4h2v-2c1.375-1.625 1.375-1.625 3-3h2v-2c5.441-2.7277 9.5802-3.4209 15.625-3.25z"/>
<path transform="translate(1426,1339)" d="m0 0h17v80h-17v-80z"/>
<path transform="translate(1151,1325)" d="m0 0h6v2h4v2h2v10h-2v2h9l1 5h2v7h-2l-1 5h-12v-2h-2v-3h-2v2c-1.1445 1.6133-1.1445 1.6133-3 3-2.6992 0.29297-2.6992 0.29297-5.6875 0.1875-0.99387-0.02707-1.9877-0.054141-3.0117-0.082031-0.75926-0.034805-1.5185-0.069609-2.3008-0.10547v-2c-0.99-0.33-1.98-0.66-3-1-0.081141-1.7701-0.13926-3.5412-0.1875-5.3125-0.034805-0.98613-0.069609-1.9723-0.10547-2.9883 0.29297-2.6992 0.29297-2.6992 1.5742-4.543 2.7663-1.861 5.4914-1.3389 8.7188-1.1562v-4h-2c-0.22692-3.3282-0.32162-5.418 1.3125-8.375 1.6875-1.625 1.6875-1.625 4.6875-1.625v-2zm1 18 2 1v2h2v-3h-4z"/>
<path transform="translate(1218,1426)" d="m0 0v2h2l1 3 1-3h2v-2c6.2769-2.2154 6.2769-2.2154 9.9375-1.125l2.0625 1.125v2h2c1.4193 4.258 1.7265 8.2291 0 12.438l-1 1.5625h-3v2c-7.3203 0.36601-7.3203 0.36601-10.438-1.3125-1.5625-1.6875-1.5625-1.6875-2.5625-4.6875l-1 2h-2l-2 4h-9l-2-4h-2v-12h2v-2c5.0447-2.2147 7.8591-1.8507 13 0z"/>
<path transform="translate(820,1426)" d="m0 0 1 4h4v-2h2v-2c3.5804-1.5345 5.4577-2.1228 9.3125-1.25 2.6875 1.25 2.6875 1.25 3.6875 3.25 0.096499 1.9981 0.12981 3.9996 0.125 6 0.0038672 1.6088 0.0038672 1.6088 0.0078125 3.25-0.13281 2.75-0.13281 2.75-1.1328 4.75h-2v2c-1.4371 0.054229-2.8748 0.092897-4.3125 0.125-1.2008 0.034805-1.2008 0.034805-2.4258 0.070312-2.2617-0.19531-2.2617-0.19531-5.2617-2.1953v-4h-4v4h-3v2h-9v-2h-2c-1.3477-2.6954-1.2802-4.9301-1.375-7.9375-0.048984-1.0609-0.097969-2.1218-0.14844-3.2148 0.52344-2.8477 0.52344-2.8477 2.9219-4.6641 0.85852-0.39059 1.717-0.78117 2.6016-1.1836 3.2006-1.6003 5.7227-0.031737 9 1z"/>
<path transform="translate(1398,1339)" d="m0 0h9v2h3c2.6002 3.9003 2.1509 7.4743 2 12h-2v2l-4 1v2h-8v-2l-1.9375-0.375-2.0625-0.625c-1.1698-2.3397-1.1661-3.8339-1.1875-6.4375-0.01418-0.78246-0.028359-1.5649-0.042969-2.3711 0.23047-2.1914 0.23047-2.1914 2.2305-5.1914h3v-2z"/>
<path transform="translate(1066,1363)" d="m0 0c1.7578 1.2031 1.7578 1.2031 3 3 0.29297 2.6992 0.29297 2.6992 0.1875 5.6875-0.02707 0.99387-0.054141 1.9877-0.082031 3.0117-0.034805 0.75926-0.069609 1.5185-0.10547 2.3008h-2v2h-2v2h-10v-2h-2v-2h-2c-0.34705-3.7275-0.49686-7.2815 0-11 4.1763-4.7117 9.2406-4.832 15-3z"/>
<path transform="translate(878.5 1338.9)" d="m0 0c1.514 0.017402 1.514 0.017402 3.0586 0.035156 1.0119 0.0090234 2.0238 0.018047 3.0664 0.027344 1.1737 0.017402 1.1737 0.017402 2.3711 0.035156v2h2v2h2v10h-2v2c-5.75 3-5.75 3-8 3v-2h-6l-1-5h-2v-7h2c0.21656-0.95906 0.21656-0.95906 0.4375-1.9375 0.8092-2.9671 0.92222-3.0375 4.0664-3.1602z"/>
<path transform="translate(1274,1339)" d="m0 0h11l1 4h2c0.05392 1.7913 0.092756 3.5831 0.125 5.375 0.023203 0.99773 0.046406 1.9955 0.070312 3.0234-0.19531 2.6016-0.19531 2.6016-2.1953 4.6016-2.625 0.125-2.625 0.125-5 0v2h-3v-2c-2.31-0.33-4.62-0.66-7-1-0.026949-1.9583-0.046372-3.9166-0.0625-5.875-0.011602-1.0905-0.023203-2.1811-0.035156-3.3047 0.097656-2.8203 0.097656-2.8203 1.0977-4.8203h2v-2z"/>
<path transform="translate(1081.2 1081.9)" d="m0 0c3.6458 0.0053475 7.2915 2.825e-5 10.937-0.0063477 14.332-0.0036349 28.602 0.33406 42.912 1.1367-2.6353 2.6353-4.5416 2.2452-8.1285 2.2711-1.2889-0.0060727-1.2889-0.0060727-2.6039-0.012268-0.90416 0.0035046-1.8083 0.0070093-2.7399 0.01062-2.9989 0.008827-5.9975 0.0029647-8.9964-0.0037842-2.0774 0.0013464-4.1549 0.0032867-6.2323 0.0057983-4.358 0.0029526-8.7159-0.0013507-13.074-0.010681-5.5959-0.011395-11.192-0.0048358-16.787 0.0071449-4.291 0.007215-8.5819 0.0049323-12.873-2.5559e-4 -2.0638-0.0013375-4.1275 3.1472e-4 -6.1913 0.0049591-2.8805 0.0050593-5.7607-0.0026365-8.6411-0.013802-0.85929 0.0040485-1.7186 0.0080969-2.6039 0.012268-5.9-0.042529-5.9-0.042529-8.1285-2.2711 14.388-0.97031 28.733-1.1555 43.151-1.1304z" fill="#F39822"/>
</svg>
